<svg width="42" height="42" viewBox="0 0 42 42" fill="none" xmlns="http://www.w3.org/2000/svg">
<path d="M8.0598 21.9618C8.45273 18.4254 11.4419 15.75 15 15.75V15.75C18.5581 15.75 21.5473 18.4254 21.9402 21.9618L22.2549 24.7945C22.3069 25.2623 22.3329 25.4962 22.3721 25.7258C22.5128 26.5511 22.7822 27.3493 23.1705 28.0911C23.2785 28.2975 23.3995 28.4992 23.6417 28.9028L24.4326 30.221C25.2384 31.5639 25.6412 32.2354 25.354 32.7427C25.0668 33.25 24.2837 33.25 22.7176 33.25H7.28238C5.71627 33.25 4.93322 33.25 4.64599 32.7427C4.35876 32.2354 4.76164 31.5639 5.5674 30.221L6.35832 28.9028C6.60046 28.4992 6.72153 28.2975 6.82954 28.0911C7.21781 27.3493 7.48722 26.5511 7.62794 25.7258C7.66709 25.4962 7.69308 25.2623 7.74505 24.7945L8.0598 21.9618Z" stroke="white" stroke-width="2"/>
<path d="M10 33.25C10 33.9066 10.1293 34.5568 10.3806 35.1634C10.6319 35.77 11.0002 36.3212 11.4645 36.7855C11.9288 37.2498 12.48 37.6181 13.0866 37.8694C13.6932 38.1207 14.3434 38.25 15 38.25C15.6566 38.25 16.3068 38.1207 16.9134 37.8694C17.52 37.6181 18.0712 37.2498 18.5355 36.7855C18.9998 36.3212 19.3681 35.77 19.6194 35.1634C19.8707 34.5568 20 33.9066 20 33.25" stroke="white" stroke-width="2" stroke-linecap="round"/>
<circle cx="35.5" cy="6.5" r="5.5" fill="#1CC4F9" stroke="#2B2B2B" stroke-width="2"/>
</svg>
