<svg width="30" height="30" viewBox="0 0 30 30" fill="none" xmlns="http://www.w3.org/2000/svg">
<path d="M5.75 21.25H11.25C11.947 21.25 12.2955 21.25 12.5853 21.3076C13.7753 21.5443 14.7056 22.4746 14.9424 23.6647C15 23.9545 15 24.303 15 25V11C15 8.17154 15 6.75733 14.1213 5.87865C13.2426 4.99997 11.8284 4.99997 9 4.99997H5.75C4.80719 4.99997 4.33579 4.99997 4.04289 5.29286C3.75 5.58576 3.75 6.05716 3.75 6.99997V19.25C3.75 20.1928 3.75 20.6642 4.04289 20.9571C4.33579 21.25 4.80719 21.25 5.75 21.25Z" stroke="white" stroke-width="2"/>
<path d="M24.25 21.25H18.75C18.053 21.25 17.7045 21.25 17.4147 21.3076C16.2247 21.5443 15.2944 22.4746 15.0576 23.6647C15 23.9545 15 24.303 15 25V11C15 8.17154 15 6.75733 15.8787 5.87865C16.7574 4.99997 18.1716 4.99997 21 4.99997H24.25C25.1928 4.99997 25.6642 4.99997 25.9571 5.29286C26.25 5.58576 26.25 6.05716 26.25 6.99997V19.25C26.25 20.1928 26.25 20.6642 25.9571 20.9571C25.6642 21.25 25.1928 21.25 24.25 21.25Z" stroke="white" stroke-width="2"/>
</svg>
