<svg width="30" height="30" viewBox="0 0 30 30" fill="none" xmlns="http://www.w3.org/2000/svg">
<path d="M23.5 25C23.764 25.0013 24.0256 24.9506 24.27 24.8508C24.5143 24.751 24.7366 24.6041 24.9242 24.4184C25.1118 24.2326 25.261 24.0118 25.3632 23.7684C25.4654 23.5251 25.5187 23.264 25.52 23C25.52 21.895 24.616 21 23.5 21M23.5 25C23.236 25.0013 22.9744 24.9506 22.73 24.8508C22.4857 24.751 22.2634 24.6041 22.0758 24.4184C21.8882 24.2326 21.739 24.0118 21.6368 23.7684C21.5346 23.5251 21.4813 23.264 21.48 23C21.48 21.895 22.384 21 23.5 21M23.5 25V27M23.5 21V19M21.75 24L20 25M27 21L25.25 22M25.25 24L27 25M20 21L21.75 22" stroke="white" stroke-width="1.5" stroke-linecap="round" stroke-linejoin="round"/>
</svg>
