<svg width="23" height="30" viewBox="0 0 23 30" fill="none" xmlns="http://www.w3.org/2000/svg">
<g clip-path="url(#clip0_1_17410)">
<path fill-rule="evenodd" clip-rule="evenodd" d="M1.83995 25.0781V4.92181C1.83995 3.14735 2.96567 1.87496 4.77259 1.87496H18.1701C19.9596 1.87496 21.16 3.07293 21.16 4.86336V25.1366C21.16 26.9704 19.9117 28.125 18.1701 28.125H4.77259C3.52256 28.125 2.42132 27.4026 2.06162 26.3755C1.92394 25.982 1.83995 25.6311 1.83995 25.0781ZM0 4.45324V25.5468C0 27.8364 2.12369 29.9999 4.36991 29.9999H18.6301C20.8777 29.9999 23 27.8373 23 25.5468V4.45324C23 2.16409 20.8767 5.24521e-05 18.6301 5.24521e-05H4.36991C3.1185 5.24521e-05 1.9771 0.709404 1.33663 1.3621C0.696643 2.01425 0 3.17715 0 4.45328L0 4.45324Z" fill="white"/>
<path fill-rule="evenodd" clip-rule="evenodd" d="M4.5999 4.68742H18.4V9.84376H4.5999V4.68742ZM2.75995 4.57033V9.9609C2.75995 10.4601 3.01013 10.8848 3.26083 11.1497C3.49521 11.3972 3.98183 11.7187 4.4274 11.7187H18.5725C19.3708 11.7187 20.2399 10.8331 20.2399 10.0195V4.51163C20.2399 3.69827 19.3708 2.81247 18.5725 2.81247H4.48496C3.59757 2.81247 2.75995 3.66606 2.75995 4.57028V4.57033Z" fill="white"/>
<path fill-rule="evenodd" clip-rule="evenodd" d="M16.56 15.9375H18.4001V23.4374H16.56V15.9375ZM14.72 15.8202V23.5547C14.72 24.495 15.6258 25.3125 16.3875 25.3125H18.5726C19.0022 25.3125 19.4827 25.0049 19.7105 24.7729C19.9384 24.5406 20.24 24.0511 20.24 23.6132V15.7616C20.24 14.9482 19.3709 14.0624 18.5726 14.0624H16.4451C15.5577 14.0624 14.7201 14.916 14.7201 15.8202L14.72 15.8202Z" fill="white"/>
<path fill-rule="evenodd" clip-rule="evenodd" d="M4.59994 22.7342C4.59994 21.8279 5.98003 21.8279 5.98003 22.7342C5.98003 23.6408 4.59994 23.6408 4.59994 22.7342ZM2.75999 22.5585V22.9102C2.75999 24.1134 3.93666 25.3125 5.11749 25.3125H5.46241C6.64323 25.3125 7.8199 24.1135 7.8199 22.9102C7.8199 22.0626 7.66203 21.4859 7.08848 20.9015C5.4963 19.279 2.75995 20.5025 2.75995 22.5585L2.75999 22.5585Z" fill="white"/>
<path fill-rule="evenodd" clip-rule="evenodd" d="M10.5799 22.7342C10.5799 21.8279 11.96 21.8279 11.96 22.7342C11.96 23.6408 10.5799 23.6408 10.5799 22.7342ZM8.73997 22.5585V22.9102C8.73997 24.1134 9.91664 25.3125 11.0975 25.3125H11.4424C12.6232 25.3125 13.7999 24.1135 13.7999 22.9102C13.7999 22.0626 13.642 21.4859 13.0685 20.9015C11.4763 19.279 8.73993 20.5025 8.73993 22.5585L8.73997 22.5585Z" fill="white"/>
<path fill-rule="evenodd" clip-rule="evenodd" d="M4.5999 16.6405C4.5999 15.7341 5.97999 15.7341 5.97999 16.6405C5.97999 17.5471 4.5999 17.5471 4.5999 16.6405ZM2.75995 16.4648V16.8164C2.75995 18.0197 3.93662 19.2187 5.11745 19.2187C5.95771 19.2187 6.51301 19.0501 7.0598 18.5027C8.70571 16.8549 7.47254 14.0624 5.46241 14.0624H5.11749C3.93666 14.0624 2.75999 15.2614 2.75999 16.4647L2.75995 16.4648Z" fill="white"/>
<path fill-rule="evenodd" clip-rule="evenodd" d="M10.5799 16.6405C10.5799 15.7341 11.96 15.7341 11.96 16.6405C11.96 17.5471 10.5799 17.5471 10.5799 16.6405ZM8.73999 16.4648V16.8164C8.73999 18.0197 9.91666 19.2187 11.0975 19.2187C11.9378 19.2187 12.4931 19.0501 13.0398 18.5027C14.6858 16.8549 13.4526 14.0624 11.4424 14.0624H11.0975C9.9167 14.0624 8.74003 15.2614 8.74003 16.4647L8.73999 16.4648Z" fill="white"/>
</g>
<defs>
<clipPath id="clip0_1_17410">
<rect width="23" height="30" fill="white"/>
</clipPath>
</defs>
</svg>
