<svg width="194" height="60" viewBox="0 0 194 60" fill="none" xmlns="http://www.w3.org/2000/svg">
<path fill-rule="evenodd" clip-rule="evenodd" d="M143.982 18.5735V44.3408C143.982 44.4412 144.013 44.4716 144.114 44.4716H149.828C149.929 44.4716 149.96 44.4412 149.96 44.3408V33.4409H159.761V44.3408C159.761 44.4412 159.792 44.4716 159.893 44.4716H165.607C165.708 44.4716 165.739 44.4412 165.739 44.3408V18.5735C165.739 18.4731 165.708 18.4427 165.607 18.4427H159.893C159.792 18.4427 159.761 18.4731 159.761 18.5735V28.3398H149.96V18.5735C149.96 18.4731 149.929 18.4427 149.828 18.4427H144.114C144.013 18.4427 143.982 18.4731 143.982 18.5735Z" fill="white"/>
<path fill-rule="evenodd" clip-rule="evenodd" d="M180.594 24.5466C180.731 24.6462 181.023 25.4795 181.109 25.6925L181.578 26.8847C181.888 27.7511 182.452 29.0022 182.742 29.8711C183.012 30.6781 184.175 33.6661 184.286 34.1385H176.946L178.761 29.3556C179.082 28.5414 179.351 27.752 179.678 26.9509L180.369 25.1519C180.433 24.9773 180.521 24.6984 180.594 24.5466V24.5466ZM167.584 44.4716H173.518C173.739 44.4716 173.963 43.4739 174.073 43.1472C174.241 42.6461 174.408 42.1924 174.567 41.7193C174.733 41.2245 174.896 40.7844 175.062 40.2916C175.162 39.9945 175.52 39.0817 175.54 38.8473H185.737L186.207 40.2552C186.305 40.4995 186.37 40.7086 186.456 40.9673C186.544 41.2313 186.623 41.4174 186.709 41.6757C186.904 42.2587 187.41 43.6213 187.563 44.1863C187.601 44.3296 187.603 44.4716 187.758 44.4716H194C194 44.1712 193.564 43.1144 193.445 42.7548L191.939 38.5802C191.834 38.2891 191.72 38.0155 191.621 37.7191C191.287 36.7216 190.75 35.4473 190.379 34.4164C189.847 32.9369 189.045 30.9852 188.443 29.492C188.218 28.9353 188.01 28.4354 187.777 27.8854C187.544 27.3354 187.324 26.8103 187.105 26.2844C186.443 24.6938 185.692 23.0581 184.989 21.4953L183.906 19.169C183.836 19.0319 183.771 18.917 183.716 18.7907C183.659 18.6603 183.626 18.4427 183.451 18.4427H178.001C177.83 18.4427 177.696 18.9201 177.576 19.1552C177.44 19.4247 177.318 19.6389 177.204 19.919C177.149 20.0534 177.092 20.1586 177.019 20.3026C176.944 20.451 176.914 20.5445 176.844 20.6955L175.758 23.0631C175.523 23.5965 175.293 24.1367 175.055 24.6762C173.191 28.8922 171.465 33.4614 169.833 37.8075L168.007 42.8415C167.901 43.1431 167.806 43.3947 167.71 43.6809C167.55 44.1623 167.349 44.4716 167.584 44.4716L167.584 44.4716Z" fill="white"/>
<path fill-rule="evenodd" clip-rule="evenodd" d="M86.4928 24.503C86.6199 24.648 86.9107 25.4754 86.9887 25.668L90.069 33.8173C90.116 33.9529 90.1563 34.017 90.1848 34.1384H82.8448C82.8645 33.9037 84.5886 29.5167 84.6656 29.3175L86.2782 25.1185C86.3499 24.9221 86.4414 24.7221 86.4928 24.503ZM73.483 44.4715H79.4165C79.6227 44.4715 79.6689 44.0555 79.7294 43.8663C79.8747 43.412 81.4226 39.0343 81.4383 38.8472H91.6352C91.6595 39.1367 93.1255 43.056 93.3401 43.8268C93.3883 44 93.4769 44.4716 93.657 44.4716H99.8103C100.006 44.4716 99.8993 44.2947 99.8366 44.1418L97.5526 37.8169C97.3565 37.2399 97.1337 36.7383 96.9373 36.1601C96.8385 35.8696 96.7392 35.6246 96.6271 35.3343L92.5021 25.1255L89.613 18.792C89.5486 18.6592 89.5168 18.4427 89.3497 18.4427H83.8996C83.7334 18.4427 83.5369 19.0041 83.4728 19.1529C83.3553 19.426 83.2133 19.6394 83.0958 19.9125L82.5516 21.073C81.234 23.8915 79.2758 28.4588 78.2672 31.1672C78.0709 31.6942 77.818 32.2645 77.6211 32.7935C76.8604 34.8359 75.9899 36.9987 75.268 39.0484L73.4639 44.1046C73.4097 44.2381 73.2519 44.4716 73.483 44.4716L73.483 44.4715Z" fill="white"/>
<path fill-rule="evenodd" clip-rule="evenodd" d="M128.028 30.7377H127.237V23.3258C130.011 23.0968 135.148 22.7697 135.148 26.6394C135.148 28.4797 134.711 29.6092 132.902 30.2095C131.501 30.674 129.881 30.7378 128.028 30.7378V30.7377ZM121.259 18.9659V44.3407C121.259 44.4412 121.29 44.4715 121.391 44.4715H127.105C127.206 44.4715 127.237 44.4412 127.237 44.3407V35.7952C130.213 35.7952 132.933 35.7908 135.671 34.8747C136.256 34.679 136.992 34.3773 137.503 34.0766L139.657 32.333C139.845 32.0946 140.056 31.8147 140.201 31.5644C140.507 31.0357 140.797 30.4308 140.968 29.7529C141.554 27.429 141.455 24.361 140.249 22.364C139.555 21.2149 138.848 20.5877 137.684 19.8952C133.894 17.6413 126.627 17.9234 122.069 18.6793C121.732 18.7353 121.259 18.74 121.259 18.9658L121.259 18.9659Z" fill="white"/>
<path fill-rule="evenodd" clip-rule="evenodd" d="M0.127056 58.3797H31.6407C31.8617 58.3797 31.7726 57.7411 31.7726 57.4205C31.7726 56.541 31.6868 54.7833 31.7846 54.0753C31.8838 53.3574 31.8166 50.2506 31.8166 49.2238C31.8166 48.992 31.1625 49.093 30.9815 49.093C30.0008 49.0931 28.9168 49.17 27.951 49.0908C26.7079 48.9887 25.2663 49.0494 23.9491 49.0494C21.2448 49.0494 18.6669 49.0059 15.9498 49.0059C16.0055 48.3423 17.4949 44.6783 17.7523 44.036L19.9436 38.6234C20.0289 38.4171 20.0905 38.2411 20.1842 38.0337L21.7013 34.4374C22.0355 33.6344 22.3763 32.8581 22.7335 32.0605C22.9173 31.6501 23.0924 31.3004 23.2645 30.8869C23.3493 30.6828 23.4403 30.5262 23.5389 30.3307C23.6294 30.1512 23.7184 29.8823 23.8612 29.7785C23.935 30.0925 24.1827 30.3775 24.3425 30.6527C25.5081 32.6613 26.7593 34.8711 27.9573 36.8331C28.3127 37.4151 28.6089 38.0463 28.9456 38.6431C29.0421 38.8142 29.1007 38.9097 29.1936 39.0947L30.1751 40.9115C30.2658 41.089 30.3316 41.1757 30.4244 41.3618L30.9228 42.2626C31.0104 42.4339 31.0773 42.5372 31.1719 42.713L32.4342 44.9052C33.2972 46.3899 34.0881 47.9173 34.9077 49.4275C35.4793 50.4807 36.1154 51.5073 36.6517 52.5807C36.7341 52.7456 36.7962 52.8693 36.8965 53.0353L38.3657 55.7635C38.5229 56.0654 38.6933 56.3509 38.8742 56.6543C39.2359 57.2609 39.5664 57.8148 39.9477 58.3797H51.2434C51.2205 58.1062 50.988 57.824 50.8632 57.5797C50.7266 57.3124 50.5745 57.0926 50.4375 56.8247C50.3003 56.5564 50.1441 56.3219 50.0126 56.0691L44.3869 46.2154C43.7019 44.9608 42.9461 43.7078 42.2311 42.468L39.6148 37.9566C39.451 37.6819 39.327 37.4486 39.1646 37.1824C39.0135 36.9348 38.8744 36.6925 38.7322 36.4342C38.583 36.1634 38.4523 35.9532 38.2961 35.6896L35.6821 31.1759C35.0985 30.1704 34.4824 29.1853 33.9263 28.1653L30.4077 22.1511C30.1118 21.6645 29.8295 21.1503 29.5336 20.6637C29.2274 20.1599 28.9542 19.6564 28.6441 19.1482C28.3392 18.6486 28.0674 18.1679 27.7643 17.6665L25.0895 13.1695C24.5781 12.3219 24.0546 11.4307 23.5009 10.6034C23.4112 10.4693 23.3265 10.3653 23.2459 10.246C22.4779 10.7561 20.5365 15.2772 20.182 16.1009C20.0701 16.361 19.9286 16.5839 19.8182 16.83L18.7339 19.1115C18.1037 20.3516 17.548 21.6502 16.917 22.89C16.7858 23.1477 16.667 23.3672 16.5467 23.6562C16.4355 23.9234 16.3053 24.127 16.1841 24.3865L13.4734 30.025C13.4021 30.1723 13.3725 30.2722 13.2987 30.4185L12.5649 31.9142C12.5014 32.0423 12.454 32.1798 12.3905 32.3079L4.18538 49.282C4.05574 49.5392 3.94334 49.764 3.81898 50.0085L0.924444 56.0315C0.814484 56.3008 0.681674 56.5551 0.572937 56.8164L0.0762044 58.0256C0.0373389 58.1254 -0.098806 58.3797 0.127156 58.3797L0.127056 58.3797Z" fill="white"/>
<path fill-rule="evenodd" clip-rule="evenodd" d="M48.2986 51.0987C48.4932 50.9693 52.0353 46.5961 52.4841 46.0511L58.1449 39.1535C58.2637 38.9875 58.2849 38.7824 58.7592 38.6728C58.773 38.8379 58.8223 38.9573 58.8542 39.1453C58.8781 39.286 58.9059 39.5541 58.9228 39.6877C59.0079 40.3597 59.0668 42.3896 59.0668 43.12C59.0668 43.952 59.1199 49.5645 59.0483 50.0339C58.9126 50.9229 59.1331 51.9284 58.9974 52.8175C58.876 53.6131 59.0817 54.7754 58.9603 55.5711C58.9019 55.9538 58.9358 57.1121 58.9349 57.6386C58.9346 57.8381 58.8552 58.249 59.0668 58.249H65.7475C65.9664 58.249 65.8794 57.5699 65.8794 57.159V18.5299C65.6851 18.546 65.509 18.7671 65.3893 18.9158L64.1517 20.3476C61.085 23.9624 57.8429 28.0279 54.9163 31.7217L48.924 39.2061C47.9769 40.3589 47.0278 41.4719 46.126 42.6653C45.7502 43.1627 45.3195 43.7355 45.0041 44.2555C44.6257 44.8793 44.6291 44.7553 45.0208 45.4122C45.2524 45.8006 45.4585 46.1535 45.6765 46.5493L47.9604 50.5184C48.0756 50.7228 48.1773 50.9192 48.2985 51.0987H48.2986Z" fill="white"/>
<path fill-rule="evenodd" clip-rule="evenodd" d="M50.3206 24.8082C50.0108 25.389 50.159 25.2936 49.6489 25.9731C49.3587 26.3596 49.0865 26.621 48.7493 26.9554C48.4353 27.267 48.1209 27.5466 47.7653 27.8106C47.5845 27.9447 47.4237 28.0743 47.2357 28.2008C46.5516 28.6609 46.2517 28.8537 45.4712 29.2408C42.3009 30.8134 39.9905 30.514 36.6687 29.7615C36.4649 29.7153 36.2441 29.6477 36.0361 29.6477C36.0447 30.0255 36.7447 31.3163 36.9293 31.6829L39.1428 35.4166C39.2443 35.5854 39.3317 35.7195 39.4204 35.8825C39.51 36.0469 39.6015 36.1769 39.6977 36.3486C40.279 37.3848 40.0022 37.234 40.9588 37.234C42.7632 37.234 45.1868 36.7731 46.779 36.1625C48.4293 35.5296 49.9136 34.845 51.3382 33.7963C51.6639 33.5566 52.6456 32.8166 52.9254 32.5368C53.3293 32.1328 53.6715 31.9105 54.0939 31.3852C54.185 31.272 54.2722 31.2052 54.3761 31.0983C54.9221 30.5359 55.9505 29.1304 56.3445 28.473C56.4844 28.2397 56.634 28.018 56.7668 27.7583C57.0739 27.1575 57.2257 26.9409 57.5414 26.2159C58.4884 24.0408 59.111 21.5979 59.111 18.5299C59.111 18.2685 58.2951 18.4278 58.1417 18.4404L54.6276 18.4424C54.233 18.4404 53.9582 18.4864 53.5291 18.4862C52.6807 18.486 50.6266 18.4388 50.0449 18.5179C49.6079 18.5774 47.3365 18.5308 46.5846 18.5298C46.1455 18.5293 45.8809 18.574 45.4419 18.5735C44.6654 18.5725 43.8889 18.5734 43.1124 18.5734C42.2834 18.5734 41.6093 18.617 40.7829 18.617C39.4913 18.617 39.3611 18.4738 39.4242 18.9569C39.4959 19.506 39.4619 20.6037 39.4628 21.2345C39.4632 21.4965 39.507 21.5506 39.51 21.7981C39.5193 22.5394 39.4483 23.4139 39.5402 24.0789C39.7011 25.2435 38.6467 24.8517 43.3321 24.8517L50.3205 24.8081L50.3206 24.8082Z" fill="white"/>
<path fill-rule="evenodd" clip-rule="evenodd" d="M28.2564 16.9168C28.6398 16.8152 29.0892 15.5618 29.2285 15.1778C29.466 14.5238 29.7346 13.8552 30.029 13.2251C30.7073 11.773 31.7148 10.3346 32.9841 9.355C33.5022 8.95518 34.0415 8.58678 34.6289 8.28349C36.052 7.54874 38.3004 6.84528 40.1235 6.84528C41.6637 6.84528 42.2332 6.85111 43.7558 7.29682C44.1381 7.40874 44.551 7.54294 44.885 7.70266C45.2724 7.88783 45.5812 8.00841 45.9439 8.22188C46.2847 8.42244 46.5936 8.57577 46.8989 8.80057L48.0217 9.64869C48.52 10.0674 48.9644 10.5398 49.4305 10.998L49.9609 11.6054C50.2114 11.9328 50.9554 11.772 51.7708 11.772C52.8114 11.772 53.9028 11.7399 54.9368 11.7706L56.4297 11.8156C57.5786 11.8156 57.7205 11.9366 57.6242 11.5078C57.4258 10.6247 57.0974 9.9693 56.707 9.27334L56.1138 8.33583C55.0545 6.78855 53.7634 5.509 52.3759 4.28305C52.085 4.02605 51.8158 3.80946 51.5132 3.5693L50.1297 2.63088L48.5769 1.81683C46.5091 0.783839 43.3419 0.00012207 40.9586 0.00012207C38.9479 0.00012207 37.7506 0.0466026 35.7806 0.531619C33.8686 1.00242 32.6502 1.53922 30.9526 2.45665C30.7034 2.59134 30.478 2.73642 30.2427 2.88608C30.0113 3.03325 29.7817 3.18039 29.5622 3.34459C29.3347 3.51469 29.1267 3.65889 28.9096 3.83089C28.7988 3.91871 28.7098 3.99244 28.5942 4.08474C28.4633 4.1893 28.4079 4.24577 28.2872 4.34705L27.103 5.43949L25.0225 7.86641C24.0817 9.05872 24.3361 9.84647 25.0184 11.1037C25.5825 12.1429 26.5068 13.4836 27.1555 14.6081L27.7586 15.7102C27.8995 16.0144 28.1911 16.6385 28.2564 16.9168Z" fill="white"/>
<path fill-rule="evenodd" clip-rule="evenodd" d="M101.612 18.5734V44.3407C101.612 44.4411 101.643 44.4715 101.744 44.4715H119.061C119.163 44.4715 119.193 44.4412 119.193 44.3407V39.5011C119.193 39.4007 119.163 39.3703 119.061 39.3703H107.59V18.5734C107.59 18.473 107.559 18.4426 107.458 18.4426H101.744C101.643 18.4426 101.612 18.473 101.612 18.5734V18.5734Z" fill="white"/>
<path fill-rule="evenodd" clip-rule="evenodd" d="M132.071 59.775H134.489C134.535 59.2215 134.509 58.9454 134.532 58.5104C134.543 58.3165 134.576 58.3012 134.578 58.0764C134.586 57.4531 134.587 56.9043 134.62 56.2869C134.631 56.0953 134.66 56.1045 134.666 55.8961C134.67 55.7527 134.659 55.6006 134.663 55.4573C134.669 55.2486 134.699 55.2581 134.709 55.0665C134.717 54.909 134.697 54.7497 134.715 54.593L134.84 52.8863L136.975 57.7881C137.034 57.9277 137.074 58.0108 137.119 58.1249C137.167 58.2463 137.202 58.4234 137.346 58.4234H138.928C139.054 58.4234 138.999 58.4629 139.133 58.1476L139.593 57.078C139.719 56.7759 141.275 53.0669 141.433 52.8863C141.433 53.2445 141.474 53.4321 141.476 53.759L141.621 56.3623C141.659 56.6374 141.642 56.918 141.651 57.2476C141.658 57.456 141.687 57.4469 141.697 57.6384C141.705 57.788 141.697 57.9655 141.697 58.1182C141.696 58.5812 141.747 58.8557 141.738 59.4287C141.735 59.6138 141.695 59.775 141.873 59.775C144.747 59.775 144.166 59.9278 144.157 59.2099L143.763 52.9298C143.752 52.4999 143.67 51.9912 143.635 51.5745L143.409 49.575C143.313 48.8833 143.63 49.0495 141.169 49.0495C141.018 49.0495 140.61 49.9403 140.524 50.1099C140.451 50.2562 140.421 50.3561 140.35 50.5034L139.25 52.8573C139.122 53.1299 139.028 53.371 138.909 53.6524C138.768 53.9859 138.284 55.0299 138.225 55.2843H138.137C138.112 54.9865 136.481 51.4747 136.217 50.91C136.147 50.759 136.117 50.6654 136.042 50.5171C135.907 50.2515 135.372 49.0495 135.192 49.0495C132.584 49.0495 132.952 48.8776 132.855 49.565C132.738 50.392 132.55 52.0766 132.51 52.8855L132.071 59.775L132.071 59.775Z" fill="white"/>
<path fill-rule="evenodd" clip-rule="evenodd" d="M105.568 57.813V55.1534C106.479 55.1534 108.168 55.0378 108.789 55.5771C108.994 55.7548 109.088 55.9558 109.133 56.2849C109.389 58.1468 106.787 57.9136 105.568 57.8129V57.813ZM106.931 53.235H105.568V51.0114C105.791 51.0114 105.808 50.9678 106.052 50.9678C107.113 50.9678 108.733 50.8068 108.733 52.1014C108.733 53.0275 107.866 53.235 106.931 53.235ZM103.151 49.2239V59.6006C103.624 59.8258 105.785 59.9235 106.578 59.9511C106.887 59.9618 107.013 59.907 107.281 59.904C108.649 59.889 109.753 59.6188 110.761 58.8225C110.958 58.6675 111.281 58.2223 111.396 57.9695C111.818 57.041 111.793 55.6747 111.195 54.8469C110.978 54.5455 110.428 54.117 110.007 54.0198V53.9326C110.417 53.8241 111.15 52.9454 111.15 52.1014C111.15 50.9357 110.836 50.2256 109.841 49.6072C108.492 48.7693 105.469 48.8834 103.797 49.1233C103.566 49.1564 103.348 49.2076 103.151 49.2239Z" fill="white"/>
<path fill-rule="evenodd" clip-rule="evenodd" d="M93.3495 54.4558C93.3495 50.5116 97.0536 50.3307 98.2857 52.0008C99.407 53.5208 99.4778 57.813 96.0745 57.813C94.1503 57.813 93.3495 56.0585 93.3495 54.4558ZM90.8003 54.0198C90.8003 55.4426 90.8714 56.5496 91.688 57.7608L92.0847 58.2829C92.1593 58.3677 92.1656 58.3932 92.2398 58.4777C92.3618 58.6167 92.4398 58.648 92.5686 58.762L92.935 59.0526C94.0311 59.8396 95.106 59.993 96.4701 59.993C97.5382 59.993 98.714 59.5933 99.4908 59.0219C99.8624 58.7486 99.9384 58.6567 100.196 58.3697C100.959 57.5181 101.519 56.18 101.526 55.0677L101.571 54.4123C101.571 54.2017 101.528 54.0729 101.526 53.8007C101.518 52.6142 100.797 50.8996 99.848 50.1459C99.714 50.0395 99.6452 49.9597 99.4908 49.8462C99.1954 49.629 98.9823 49.5121 98.6388 49.3399C97.3163 48.6766 95.1483 48.6549 93.8176 49.2958C93.3047 49.5429 92.6705 49.9289 92.295 50.3578C91.3858 51.3967 90.8003 52.5265 90.8003 54.0198L90.8003 54.0198Z" fill="white"/>
<path fill-rule="evenodd" clip-rule="evenodd" d="M159.629 53.9326H159.234V51.0986C159.89 51.0986 160.761 51.0409 161.35 51.2233C162.134 51.4665 162.354 51.8002 162.354 52.581C162.354 53.8434 160.912 53.9326 159.629 53.9326ZM156.729 49.3547V59.6441C156.729 59.7445 156.759 59.7749 156.86 59.7749H159.234V55.8946C160.596 55.8946 160.274 55.7737 160.672 56.2994C160.798 56.466 160.884 56.584 161.001 56.7579C161.79 57.9362 162.012 58.3897 162.663 59.5119C162.714 59.5983 162.781 59.6905 162.838 59.775H165.563C165.514 59.1906 163.797 56.5804 163.339 55.9207C163.206 55.7293 163.072 55.6069 162.97 55.415C163.293 55.2611 163.412 55.2283 163.755 54.9733C164.603 54.3438 164.948 53.6016 164.948 52.4066C164.948 51.1479 164.384 50.316 163.621 49.7988C162.153 48.804 159.766 48.8929 157.958 49.0483C157.729 49.0679 156.729 49.1214 156.729 49.3547V49.3547Z" fill="white"/>
<path fill-rule="evenodd" clip-rule="evenodd" d="M166.706 49.1802V59.6441C166.706 59.7445 166.736 59.7749 166.837 59.7749H169.211V55.3278L171.277 57.3769C171.424 57.5658 171.575 57.7254 171.729 57.9313C172.099 58.4265 172.751 59.2429 173.035 59.775H175.979C175.914 59.4963 174.619 57.7141 174.416 57.4456C174.114 57.0461 173.574 56.3305 173.243 55.9932C172.832 55.5743 172.491 55.0779 171.967 54.6431L171.277 54.0198C171.329 53.8266 171.949 53.3105 172.122 53.1148L175.263 49.6904C175.474 49.4436 175.895 49.0494 175.584 49.0494H172.903C172.773 49.0494 172.73 49.1605 172.664 49.2484L171.748 50.2588C171.398 50.6017 170.542 51.6358 170.167 52.0037C170.078 52.0907 170.008 52.1529 169.924 52.2426C169.735 52.4453 169.51 52.7745 169.211 52.9734L169.212 49.4403C169.216 49.2463 169.264 49.0494 169.079 49.0494H166.837C166.736 49.0494 166.706 49.0798 166.706 49.1803V49.1802Z" fill="white"/>
<path fill-rule="evenodd" clip-rule="evenodd" d="M72.2086 54.107C72.2086 54.8258 72.1915 55.1806 72.3359 55.8991C72.4158 56.2962 72.5058 56.5605 72.6314 56.914C72.7638 57.2866 72.9785 57.6581 73.2006 57.9625C73.7497 58.7149 74.3265 59.1908 75.2285 59.5697C76.7562 60.2116 79.0339 60.0455 80.6125 59.653C80.8503 59.5938 81.3507 59.5114 81.3507 59.3389V54.107H78.8894V57.8129C77.8703 57.8129 76.4602 58.1499 75.5108 56.8916C74.3012 55.2883 74.3646 51.0114 77.6147 51.0114C78.4413 51.0114 78.6322 50.9805 79.4609 51.2292C79.7744 51.3234 80.3815 51.6107 80.5156 51.6218L81.2188 49.6598C80.2134 48.9919 78.7155 48.8314 77.3071 48.8314C76.3347 48.8314 75.1548 49.218 74.3929 49.7774C73.0242 50.7822 72.2086 52.3738 72.2086 54.1069L72.2086 54.107Z" fill="white"/>
<path fill-rule="evenodd" clip-rule="evenodd" d="M150.223 51.6655C150.341 51.7506 150.387 51.9594 150.444 52.101C150.507 52.2584 150.559 52.4115 150.625 52.5749L151.718 55.5022H148.773C148.908 55.2488 149.016 54.853 149.137 54.5552C149.268 54.2332 149.386 53.9415 149.504 53.6111C149.599 53.3446 150.206 51.8785 150.223 51.6655ZM144.861 59.775H147.323C147.466 59.775 147.458 59.6729 147.496 59.5543L148.106 57.7621C148.148 57.6279 148.145 57.5078 148.29 57.5078H152.245C152.406 57.5078 152.415 57.7278 152.515 58.0254L153.029 59.5206C153.071 59.6549 153.068 59.775 153.212 59.775H155.762C155.757 59.5589 155.61 59.2616 155.547 59.0718C155.461 58.8132 155.382 58.6278 155.295 58.3632C154.756 56.732 153.141 52.6375 152.348 50.9532L151.588 49.3091C151.537 49.1921 151.525 49.0494 151.366 49.0494H149.257C149.089 49.0494 148.952 49.4343 148.875 49.5867C147.638 52.0404 146.321 55.731 145.339 58.3298C145.238 58.5952 144.866 59.55 144.861 59.7749L144.861 59.775Z" fill="white"/>
<path fill-rule="evenodd" clip-rule="evenodd" d="M117.391 51.6654C117.426 51.8122 117.514 51.9908 117.574 52.1388C117.634 52.2896 117.691 52.4319 117.762 52.6058L118.842 55.5022H115.897C115.964 55.3637 116.025 55.1882 116.078 55.028L117.359 51.7206C117.363 51.7133 117.372 51.6988 117.375 51.693C117.378 51.6871 117.385 51.6742 117.391 51.6654L117.391 51.6654ZM112.073 59.7749H114.447C114.608 59.7749 114.616 59.5558 114.716 59.2573L115.326 57.5078H119.457L120.248 59.7749H122.886C122.869 59.5762 122.508 58.599 122.415 58.3669C122.322 58.1336 122.263 57.9284 122.169 57.6949L121.398 55.6264C120.794 54.0165 120.035 52.1975 119.325 50.6197C119.274 50.5075 119.223 50.4273 119.168 50.2955L118.711 49.3103C118.66 49.2035 118.626 49.0494 118.49 49.0494H116.381C116.154 49.0494 115.504 50.6457 115.395 50.9058C115.296 51.1421 115.198 51.336 115.1 51.572C114.351 53.3726 113.575 55.1851 112.925 57.0449L112.032 59.5208C111.98 59.6541 111.879 59.7749 112.073 59.7749H112.073Z" fill="white"/>
<path fill-rule="evenodd" clip-rule="evenodd" d="M176.946 49.1803V59.6442C176.946 59.7446 176.977 59.775 177.078 59.775H184.638V57.813C184.638 57.7126 184.607 57.6822 184.506 57.6822H179.452V55.197H183.627C183.728 55.197 183.759 55.1667 183.759 55.0662V53.3222C183.759 53.2202 183.686 53.1478 183.583 53.1478H179.452V51.1859H184.154C184.256 51.1859 184.286 51.1555 184.286 51.055V49.1803C184.286 49.0798 184.256 49.0494 184.154 49.0494H177.078C176.977 49.0494 176.946 49.0798 176.946 49.1803V49.1803Z" fill="white"/>
<path fill-rule="evenodd" clip-rule="evenodd" d="M185.078 49.1803V51.1859H188.286V59.6442C188.286 59.7446 188.317 59.775 188.418 59.775H190.791V51.186H194V49.0496H185.209C185.108 49.0496 185.078 49.0799 185.078 49.1804V49.1803Z" fill="white"/>
<path fill-rule="evenodd" clip-rule="evenodd" d="M123.852 49.1803V59.775H130.972C131.074 59.775 131.104 59.7446 131.104 59.6442V57.7694C131.104 57.6689 131.074 57.6385 130.972 57.6385H126.357V49.1803C126.357 49.0798 126.327 49.0494 126.225 49.0494H123.984C123.883 49.0494 123.852 49.0798 123.852 49.1803V49.1803Z" fill="white"/>
<path fill-rule="evenodd" clip-rule="evenodd" d="M83.1963 49.1803V59.775H90.3165C90.4178 59.775 90.4484 59.7446 90.4484 59.6441V57.7693C90.4484 57.6689 90.4178 57.6385 90.3165 57.6385H85.7016V49.2239C85.7016 49.1218 85.6286 49.0494 85.5258 49.0494H83.3282C83.2269 49.0494 83.1963 49.0798 83.1963 49.1803Z" fill="white"/>
</svg>
