<svg width="30" height="30" viewBox="0 0 30 30" fill="none" xmlns="http://www.w3.org/2000/svg">
<path d="M7.5 13.75C7.5 10.215 7.5 8.44625 8.59875 7.34875C9.69625 6.25 11.465 6.25 15 6.25H18.75C22.285 6.25 24.0538 6.25 25.1513 7.34875C26.25 8.44625 26.25 10.215 26.25 13.75V20C26.25 23.535 26.25 25.3038 25.1513 26.4013C24.0538 27.5 22.285 27.5 18.75 27.5H15C11.465 27.5 9.69625 27.5 8.59875 26.4013C7.5 25.3038 7.5 23.535 7.5 20V13.75Z" stroke="white" stroke-width="1.5"/>
<path d="M7.5 23.75C6.50544 23.75 5.55161 23.3549 4.84835 22.6517C4.14509 21.9484 3.75 20.9946 3.75 20V12.5C3.75 7.78625 3.75 5.42875 5.215 3.965C6.68 2.50125 9.03625 2.5 13.75 2.5H18.75C19.7446 2.5 20.6984 2.89509 21.4017 3.59835C22.1049 4.30161 22.5 5.25544 22.5 6.25" stroke="white" stroke-width="1.5"/>
</svg>
