<svg width="60" height="60" viewBox="0 0 60 60" fill="none" xmlns="http://www.w3.org/2000/svg">
<g clip-path="url(#clip0_1658_10832)">
<path fill-rule="evenodd" clip-rule="evenodd" d="M50.1562 25.078C51.7129 25.078 55.9481 25.5466 57.5393 25.5466C57.5393 28.0728 57.8908 30.3522 57.8908 32.8126C56.6477 31.98 55.7028 30.0309 54.6779 30.294C54.1922 30.4187 52.1468 32.6384 51.6505 33.1346L36.9433 47.8419C36.0415 48.7436 34.8623 50.3907 33.3985 50.3907C32.2538 50.3907 31.4839 49.2376 30.8497 48.6034L26.5139 44.2677C23.6484 41.4021 24.4855 41.4327 19.8927 46.0255C18.6251 47.2931 17.1598 48.9391 15.803 50.0215C14.6265 50.9603 8.30914 57.8906 7.61717 57.8906H6.91421C6.63074 57.8906 6.09369 57.354 6.09369 57.0701C6.09369 55.7379 6.33557 55.9495 8.11531 54.1698L14.6186 47.6654C15.0294 47.25 15.3363 47.0716 15.7343 46.6714L21.182 41.2207C22.1884 40.2142 22.6374 39.3748 24.0237 39.3748C25.3771 39.3748 27.0076 41.8024 28.5938 43.1248C29.4941 43.8754 32.7043 47.4609 33.2814 47.4609C33.9746 47.4609 35.6964 45.456 36.2403 44.9121L51.4749 29.6776C53.1261 28.0263 53.1582 28.1382 51.5334 26.5138C51.0723 26.0527 50.4997 25.5913 50.1562 25.078L50.1562 25.078ZM60 32.6731V34.0099C59.926 34.4487 59.7453 34.8369 59.3704 35.1124C57.5033 36.4832 56.1749 33.7038 54.8438 32.8126L46.1246 41.5541C45.9587 41.7162 45.9617 41.7087 45.8208 41.8364L45.4545 42.1731C45.3283 42.288 45.2825 42.316 45.1472 42.4517L44.5346 43.1282C43.4809 44.2843 43.0833 44.5145 41.9238 45.6737C40.8251 46.7724 36.3578 51.4974 35.3551 51.9955C33.564 52.8856 31.8085 52.5099 30.4389 51.1236C29.7121 50.3874 29.0616 49.7453 28.3303 49.0135L24.0236 44.7655L18.5332 50.291C17.5842 51.048 16.9663 51.7642 16.0842 52.6464C14.7274 54.0032 13.4563 55.2742 12.0995 56.631C11.4071 57.3234 10.7968 57.927 10.1081 58.6235C9.34582 59.3949 8.45914 59.8889 7.56723 60H6.81058C6.15864 59.9157 5.52219 59.6088 4.94883 59.0355C4.61243 58.6991 4.50437 58.6496 4.29724 58.1639C3.18422 55.5539 5.12496 54.2307 6.65031 52.7049L11.3965 47.9591C11.6985 47.6571 11.9162 47.4406 12.2159 47.1374C12.5466 46.803 12.7064 46.7251 13.0364 46.4345C13.6162 45.9239 15.8245 43.7605 16.1718 43.2423C13.6736 42.6603 11.918 41.621 9.87984 40.3938C8.31817 39.4535 6.15141 37.4666 5.05425 36.0785C3.63735 34.2863 2.5481 32.6687 1.62251 30.3696C0.262296 26.9901 0 25.0833 0 21.2109C0 18.215 1.04615 14.6461 2.0696 12.6165C2.6679 11.4294 3.25673 10.3054 4.01641 9.28985C4.88112 8.13449 5.37738 7.45418 6.41594 6.41594L7.82302 5.12791C11.0129 2.26762 16.6355 0 21.2109 0C25.5557 0 27.6873 0.412339 31.5919 2.15845L33.3327 3.11276C35.1143 4.18914 36.3797 5.26741 37.8223 6.70892C43.2612 12.1441 45.7035 20.9955 42.8187 29.2253C42.0858 31.3164 41.1111 33.0292 39.9856 34.7122C39.2429 35.8222 38.6137 36.34 38.086 37.0313C37.7803 37.4319 37.4318 37.78 37.0312 38.0861C36.6291 38.393 36.3392 38.7029 35.8962 39.0604C34.7722 39.9675 32.0208 41.8807 30.7029 42.1875C30.8254 42.646 32.9755 44.6782 33.2812 44.8826C33.7881 44.7473 34.0738 44.2662 34.4238 43.9159C36.3316 42.0076 49.7751 28.6942 50.156 28.125C49.6141 27.3154 47.5781 26.0017 47.5781 24.9609C47.5781 23.9321 47.9514 23.0277 49.2138 22.9623L58.1759 23.5035C59.1393 23.7601 59.4863 24.38 59.5331 25.3105C59.6129 26.8982 59.8828 29.7747 59.879 31.2925C59.8778 31.6973 59.9508 32.1803 59.9999 32.6732L60 32.6731ZM23.9065 37.2655C22.6653 37.2655 21.9306 37.8982 21.5459 37.9613C21.1309 38.0293 20.909 37.9092 20.6044 37.8729C17.3832 37.4923 15.4462 36.7905 12.866 35.0636C9.11452 32.5526 6.09365 27.5002 6.09365 22.9687C6.09365 19.3461 6.39449 17.0796 8.20711 13.9491C8.42479 13.5727 8.68556 13.2235 8.95241 12.8194L10.6339 10.7509C11.5262 9.73275 13.7277 8.31509 14.961 7.69526C20.2246 5.04965 26.7475 5.6865 31.4246 9.12239C35.6193 12.2037 37.969 16.8823 37.969 22.2657C37.969 26.5482 35.8261 30.6909 33.6624 32.8418C32.9873 33.5126 32.5296 33.985 31.7859 34.5984C31.0659 35.1922 30.3225 35.5762 29.5095 36.0717C28.8901 36.4492 27.6644 36.9613 26.8787 37.1912C24.4474 37.9021 25.6515 37.2656 23.9065 37.2656L23.9065 37.2655ZM3.98433 21.5624C3.98433 26.2644 5.17409 29.602 7.79965 33.0987C8.55857 34.1097 9.89725 35.4405 10.9143 36.1952C11.7189 36.792 12.4457 37.3385 13.397 37.8139C14.3955 38.3125 15.1053 38.6896 16.2444 39.0683C17.0199 39.3257 18.6886 39.8242 19.5703 39.8439L17.958 41.5125C17.0997 41.4154 15.9194 40.9966 15.1601 40.7385C9.45767 38.7996 4.60564 33.6173 2.88673 27.8166C1.64404 23.6237 1.80771 19.5124 3.11955 15.5414C3.67929 13.8467 4.21295 12.7748 5.13322 11.3439C5.27268 11.127 5.34938 10.966 5.49036 10.7638C5.73603 10.4115 5.96202 10.0868 6.23718 9.75276L8.40921 7.35431C11.3557 4.75896 14.6131 2.98189 18.6144 2.32503C24.3799 1.37903 29.7645 2.90251 33.9525 6.00848C42.7597 12.5408 44.6249 25.1014 37.9198 34.0526C36.8793 35.4419 35.4223 36.8509 34.036 37.9031C33.2099 38.5301 31.3632 39.6892 30.3685 40.0948C29.9588 40.2622 29.4157 40.5544 28.9451 40.6639L27.5127 39.1665C27.9171 39.0524 28.6035 38.7667 28.986 38.5951C34.0625 36.3161 38.0713 32.0559 39.4233 26.6498C41.6414 17.7806 37.3196 9.10717 29.2955 5.50917C25.9749 4.02005 21.3852 3.47508 17.718 4.47589C13.9786 5.49635 10.7502 7.35922 8.23767 10.3469C7.25312 11.5174 6.25084 13.0212 5.62646 14.4154C4.77645 16.3116 3.98429 18.8294 3.98429 21.5623L3.98433 21.5624Z" fill="white"/>
<path fill-rule="evenodd" clip-rule="evenodd" d="M23.0856 27.8906V23.4373C24.732 23.5745 27.5167 25.3656 24.9134 27.14C24.7055 27.2813 24.3053 27.4734 24.0604 27.5761C23.7047 27.7251 23.3782 27.75 23.0856 27.8906ZM18.0465 18.5153V18.3982C18.0465 17.2473 19.7957 16.1982 20.9764 16.1717V20.6251C19.9926 20.153 18.0465 19.8941 18.0465 18.5154V18.5153ZM20.9764 13.0076V14.0624C17.3356 14.0624 13.6828 18.7852 17.6229 21.4002C18.2563 21.8205 20.1052 22.6617 20.9764 22.7343V27.8906C20.0493 27.6744 19.3599 27.4268 18.6947 26.8909C17.9789 26.3138 17.9963 25.1951 16.9921 25.1951C15.4021 25.1951 15.7165 27.3784 17.7442 28.7787C18.7469 29.4711 19.6433 29.6892 20.9763 29.9998C20.9763 31.2659 20.8584 31.992 22.0308 31.992C23.3914 31.992 22.8774 30.5078 23.1454 30.0596C23.3525 29.713 23.3135 29.9806 24.3015 29.6922C28.4426 28.4839 30.2511 23.232 23.7841 21.45C23.4262 21.3514 23.0856 21.382 23.0856 20.9765V16.1717C25.3027 16.2212 26.0778 18.2742 26.2127 18.4356C27.3711 19.8226 29.516 17.5674 26.2532 15.231C25.6261 14.782 24.1268 14.0855 23.0856 14.0624C23.0856 13.5276 23.1329 12.8511 22.8532 12.4195C22.3154 11.5884 20.9763 11.9739 20.9763 13.0075L20.9764 13.0076Z" fill="white"/>
</g>
<defs>
<clipPath id="clip0_1658_10832">
<rect width="60" height="60" fill="white"/>
</clipPath>
</defs>
</svg>
