<svg width="258" height="90" viewBox="0 0 258 90" fill="none" xmlns="http://www.w3.org/2000/svg">
<path opacity="0.1" fill-rule="evenodd" clip-rule="evenodd" d="M1 46.2618C1 46.2618 11.0913 44.626 22.5646 48.5558C44.386 56.0299 45.6308 42.343 53.7224 35.7434C61.1253 29.7055 67.2563 33.3894 75.4989 40.7733C81.5782 46.2192 90.438 55.3608 99.6133 53.8891C108 52.5438 113.946 41.822 125.572 39.0953C134.786 36.9342 142.274 42.8713 152.883 40.7733C167.277 37.9271 173.706 21.1714 183.993 21.1714C196.689 21.1714 205.628 7 217.178 7C228.659 7 230.218 15.3331 242.778 21.1714C252.38 25.6348 257 21.1714 257 21.1714V90H1V46.2618Z" fill="url(#paint0_linear_1658_10841)"/>
<path d="M1 39.3934C1 39.3934 11.0913 37.7952 22.5646 41.6346C44.386 48.9371 45.6308 35.5645 53.7224 29.1166C61.1253 23.2174 67.2563 26.8167 75.4989 34.0309C81.5782 39.3517 90.438 48.2833 99.6133 46.8454C108 45.5311 113.946 35.0556 125.572 32.3915C134.786 30.28 142.274 36.0808 152.883 34.0309C167.277 31.2501 173.706 14.8793 183.993 14.8793C196.689 14.8793 205.628 1 217.178 1C228.659 1 229.27 9.17516 241.83 14.8793C251.432 19.2402 257 14.8793 257 14.8793" stroke="white" stroke-width="1.84723" stroke-linecap="round" stroke-linejoin="round"/>
<defs>
<linearGradient id="paint0_linear_1658_10841" x1="47.2658" y1="38.4592" x2="47.2658" y2="69" gradientUnits="userSpaceOnUse">
<stop stop-color="white"/>
<stop offset="1" stop-color="white" stop-opacity="0.01"/>
</linearGradient>
</defs>
</svg>
