<svg width="30" height="30" viewBox="0 0 30 30" fill="none" xmlns="http://www.w3.org/2000/svg">
<circle cx="15" cy="10" r="3.25" stroke="white" stroke-linecap="round"/>
<path d="M17.1017 8.0625C17.3613 7.61288 17.7484 7.25033 18.214 7.02071C18.6796 6.79108 19.2029 6.70469 19.7176 6.77246C20.2324 6.84022 20.7154 7.0591 21.1058 7.40142C21.4961 7.74374 21.7762 8.19411 21.9106 8.6956C22.0449 9.19709 22.0276 9.72716 21.8607 10.2188C21.6938 10.7104 21.3849 11.1415 20.973 11.4576C20.5611 11.7736 20.0647 11.9604 19.5467 11.9944C19.0286 12.0283 18.5121 11.9079 18.0625 11.6483" stroke="white"/>
<path d="M12.8983 8.0625C12.6387 7.61288 12.2516 7.25033 11.786 7.02071C11.3204 6.79108 10.7971 6.70469 10.2824 6.77246C9.76763 6.84022 9.28455 7.0591 8.89422 7.40142C8.50388 7.74374 8.22382 8.19411 8.08944 8.6956C7.95507 9.19709 7.97242 9.72716 8.13931 10.2188C8.30619 10.7104 8.61511 11.1415 9.027 11.4576C9.43889 11.7736 9.93525 11.9604 10.4533 11.9944C10.9714 12.0283 11.4879 11.9079 11.9375 11.6483" stroke="white"/>
<path d="M15 15.625C20.3061 15.625 21.517 20.0925 21.7933 22.1315C21.8675 22.6788 21.4273 23.125 20.875 23.125H9.125C8.57272 23.125 8.13254 22.6788 8.20671 22.1315C8.48304 20.0925 9.69393 15.625 15 15.625Z" stroke="white" stroke-linecap="round"/>
<path d="M24.1848 19.5394L24.6725 19.429L24.1848 19.5394ZM16.3589 15.7324L15.9896 15.3953L15.3692 16.0748L16.2769 16.2256L16.3589 15.7324ZM21.4767 20.625L20.9964 20.764L21.1008 21.125H21.4767V20.625ZM19.375 14.875C20.7743 14.875 21.7386 15.5974 22.4244 16.5734C23.1199 17.5632 23.5006 18.7811 23.6972 19.6498L24.6725 19.429C24.464 18.5078 24.0471 17.1435 23.2426 15.9985C22.4285 14.8399 21.1905 13.875 19.375 13.875V14.875ZM16.7281 16.0695C17.373 15.3632 18.2224 14.875 19.375 14.875V13.875C17.8945 13.875 16.7899 14.5188 15.9896 15.3953L16.7281 16.0695ZM16.2769 16.2256C19.2212 16.7149 20.4626 18.9192 20.9964 20.764L21.957 20.486C21.3742 18.4717 19.9346 15.8197 16.4409 15.2392L16.2769 16.2256ZM23.27 20.125H21.4767V21.125H23.27V20.125ZM23.6972 19.6498C23.7488 19.8778 23.5792 20.125 23.27 20.125V21.125C24.1441 21.125 24.8821 20.355 24.6725 19.429L23.6972 19.6498Z" fill="white"/>
<path d="M13.6411 15.7324L13.7231 16.2256L14.6308 16.0748L14.0104 15.3953L13.6411 15.7324ZM5.81516 19.5394L6.30282 19.6498L5.81516 19.5394ZM8.52335 20.625V21.125H8.8992L9.00365 20.764L8.52335 20.625ZM10.625 14.875C11.7776 14.875 12.627 15.3632 13.2719 16.0695L14.0104 15.3953C13.2102 14.5188 12.1055 13.875 10.625 13.875V14.875ZM6.30282 19.6498C6.49942 18.7811 6.88011 17.5632 7.57557 16.5734C8.2614 15.5974 9.22576 14.875 10.625 14.875V13.875C8.8095 13.875 7.57149 14.8399 6.75736 15.9985C5.95286 17.1435 5.536 18.5078 5.32749 19.429L6.30282 19.6498ZM6.72997 20.125C6.42081 20.125 6.25122 19.8778 6.30282 19.6498L5.32749 19.429C5.11791 20.355 5.85589 21.125 6.72997 21.125V20.125ZM8.52335 20.125H6.72997V21.125H8.52335V20.125ZM9.00365 20.764C9.53736 18.9192 10.7788 16.7149 13.7231 16.2256L13.5591 15.2392C10.0654 15.8197 8.62582 18.4717 8.04305 20.486L9.00365 20.764Z" fill="white"/>
</svg>
