<svg width="58" height="58" viewBox="0 0 58 58" fill="none" xmlns="http://www.w3.org/2000/svg">
<path d="M31.4166 4.8335H26.5833C16.3293 4.8335 11.2036 4.8335 8.01842 8.01866C4.83325 11.2038 4.83325 16.332 4.83325 26.5835C4.83325 36.835 4.83325 41.9632 8.01842 45.1483C11.2036 48.3335 16.3318 48.3335 26.5833 48.3335H31.4166C41.6705 48.3335 46.7963 48.3335 49.9814 45.1483C53.1666 41.9632 53.1666 36.835 53.1666 26.5835C53.1666 16.332 53.1666 11.2038 49.9814 8.01866C46.7963 4.8335 41.6681 4.8335 31.4166 4.8335Z" stroke="white" stroke-width="2" stroke-linecap="round" stroke-linejoin="round"/>
<path d="M41.0833 36.2503C43.5 34.9695 43.5 32.9032 43.5 28.7732V24.3942C43.5 20.2641 43.5 18.1978 41.0833 16.917M43.5 53.167V48.3337M14.5 53.167V48.3337M22.9583 31.417C23.5962 31.4202 24.2285 31.2977 24.8191 31.0565C25.4096 30.8153 25.9469 30.4602 26.4002 30.0114C26.8535 29.5626 27.214 29.0288 27.461 28.4407C27.7081 27.8526 27.8368 27.2216 27.84 26.5837C27.84 23.9132 25.6553 21.7503 22.9583 21.7503M22.9583 31.417C22.3204 31.4202 21.6882 31.2977 21.0976 31.0565C20.507 30.8153 19.9698 30.4602 19.5165 30.0114C19.0632 29.5626 18.7027 29.0288 18.4557 28.4407C18.2086 27.8526 18.0798 27.2216 18.0767 26.5837C18.0767 23.9132 20.2613 21.7503 22.9583 21.7503M22.9583 31.417V36.2503M22.9583 21.7503V16.917M18.7292 29.0003L14.5 31.417M31.4167 21.7503L27.1875 24.167M27.1875 29.0003L31.4167 31.417M14.5 21.7503L18.7292 24.167" stroke="white" stroke-width="2" stroke-linecap="round" stroke-linejoin="round"/>
</svg>
