<svg width="30" height="30" viewBox="0 0 30 30" fill="none" xmlns="http://www.w3.org/2000/svg">
<path d="M16.25 2.5H13.75C8.44625 2.5 5.795 2.5 4.1475 4.1475C2.5 5.795 2.5 8.4475 2.5 13.75C2.5 19.0525 2.5 21.705 4.1475 23.3525C5.795 25 8.4475 25 13.75 25H16.25C21.5538 25 24.205 25 25.8525 23.3525C27.5 21.705 27.5 19.0525 27.5 13.75C27.5 8.4475 27.5 5.795 25.8525 4.1475C24.205 2.5 21.5525 2.5 16.25 2.5Z" stroke="white" stroke-width="1.5" stroke-linecap="round" stroke-linejoin="round"/>
<path d="M21.25 18.75C22.5 18.0875 22.5 17.0188 22.5 14.8825V12.6175C22.5 10.4812 22.5 9.4125 21.25 8.75M22.5 27.5V25M7.5 27.5V25M11.875 16.25C12.2049 16.2516 12.532 16.1883 12.8374 16.0635C13.1429 15.9388 13.4208 15.7551 13.6553 15.523C13.8897 15.2908 14.0762 15.0147 14.204 14.7105C14.3318 14.4063 14.3984 14.0799 14.4 13.75C14.4 12.3687 13.27 11.25 11.875 11.25M11.875 16.25C11.5451 16.2516 11.218 16.1883 10.9126 16.0635C10.6071 15.9388 10.3292 15.7551 10.0947 15.523C9.86025 15.2908 9.67381 15.0147 9.54603 14.7105C9.41825 14.4063 9.35164 14.0799 9.35 13.75C9.35 12.3687 10.48 11.25 11.875 11.25M11.875 16.25V18.75M11.875 11.25V8.75M9.6875 15L7.5 16.25M16.25 11.25L14.0625 12.5M14.0625 15L16.25 16.25M7.5 11.25L9.6875 12.5" stroke="white" stroke-width="1.5" stroke-linecap="round" stroke-linejoin="round"/>
</svg>
