<svg width="60" height="60" viewBox="0 0 60 60" fill="none" xmlns="http://www.w3.org/2000/svg">
<g clip-path="url(#clip0_1658_10878)">
<path fill-rule="evenodd" clip-rule="evenodd" d="M18.9916 52.2364H17.419V48.3697H19.3544V51.8739C19.3544 52.1524 19.2703 52.2364 18.9916 52.2364ZM21.2921 52.1405L21.2899 48.3697C21.8469 48.2401 22.8406 48.3125 23.2254 48.128V51.9947L21.2921 52.1405ZM13.548 48.128C13.9328 48.3125 14.9265 48.2401 15.4834 48.3697V52.1156L13.5502 51.9698L13.548 48.128ZM25.1608 51.753V49.9405L26.1286 51.6321C25.7125 51.6321 25.4509 51.6405 25.1608 51.7529V51.753ZM9.67703 47.6446C10.3977 47.6606 10.7138 47.8862 11.6125 47.8862V51.7529C10.9976 51.6098 10.2893 51.5329 9.67703 51.3905V47.6446ZM5.8061 46.6779C6.3967 46.8154 7.09229 47.1072 7.74157 47.1612V50.9071C6.97827 50.8436 6.48587 50.4803 5.8061 50.4238V46.6779ZM1.93518 44.8654C2.46354 45.0063 2.99141 45.6275 3.87064 45.8321V49.4571C3.17092 49.0873 2.52212 48.6624 2.13051 47.9328C1.75452 47.2323 1.93518 45.8331 1.93518 44.8654ZM25.1609 41.6029C25.1609 36.3836 27.9631 30.9707 32.2493 28.1415C36.3083 25.4624 40.2336 24.6095 45.274 25.6204C47.4255 26.0519 49.2167 26.9803 50.9758 28.1415C51.92 28.7647 52.4253 29.264 53.1952 30.0329C53.9651 30.802 54.4648 31.3068 55.0887 32.2499C56.882 34.9608 58.0641 38.0018 58.0641 41.6029C58.0641 46.9512 55.2552 52.1109 50.9764 55.0649C45.1827 59.065 38.1335 58.9483 32.2492 55.0642C30.5523 53.9441 28.2821 51.5303 27.3365 49.7006C26.0197 47.1528 25.1608 44.6535 25.1608 41.6029H25.1609ZM1.93518 41.6029C1.93518 40.9702 3.085 39.9112 3.26585 39.9112L6.18324 40.9846C10.5951 42.376 14.7753 42.5697 19.4755 42.5697C20.5677 42.5697 22.358 42.5298 23.2255 42.328C23.2255 43.9893 23.6916 45.2796 23.7093 46.0739C22.3867 46.1033 18.9666 46.5903 17.4366 46.4187C15.4757 46.1988 13.4835 46.2451 11.1952 45.8865C9.45869 45.6144 1.93508 44.0089 1.93508 41.6029H1.93518ZM18.7498 40.6362H17.4191V36.7695H19.3545V40.5154C19.0833 40.5786 19.0765 40.6362 18.7498 40.6362ZM13.5481 36.5279C13.933 36.7123 14.9267 36.6399 15.4836 36.7695V40.5154L13.5504 40.3696L13.5481 36.5279ZM9.67722 36.0445C10.371 36.1022 10.7626 36.2862 11.6127 36.2862V40.1529C11.0386 40.1052 10.2109 39.9146 9.67722 39.7904V36.0445ZM5.80629 35.0779C6.39689 35.2153 7.09248 35.5073 7.74176 35.5612V39.3071C6.97847 39.2436 6.48607 38.8803 5.80629 38.8238V35.0779ZM23.2257 40.3946C22.3796 40.3946 22.069 40.5155 21.2902 40.5155V36.7696C21.8097 36.6488 23.3242 36.528 23.9515 36.528C23.6378 37.1809 23.305 39.4429 23.2257 40.3946ZM1.93537 33.2654C2.46373 33.4063 2.99161 34.0275 3.87083 34.2321V37.8571C1.45256 36.5788 1.93537 35.5827 1.93537 33.2654ZM1.93537 30.0029C1.93537 29.3702 3.0852 28.3112 3.26605 28.3112L6.18343 29.3846C11.8206 31.1623 19.433 31.3547 25.4245 30.5076C26.0191 30.4236 26.5771 30.2877 27.0967 30.2446C26.6383 30.9282 26.1987 31.55 25.7411 32.2738C25.2861 32.9935 25.0263 33.7728 24.5563 34.4738C23.4206 34.4738 22.4619 34.708 21.416 34.7203C20.1316 34.7353 19.2931 34.843 18.0199 34.8405L14.67 34.6826C13.6998 34.5512 12.5597 34.4573 11.5127 34.3322C9.66006 34.1107 1.93537 32.4439 1.93537 30.003V30.0029ZM17.4193 25.1694H19.3547V29.0361H17.4193V25.1694ZM21.2924 28.9403L21.2902 25.1694C21.8472 25.0398 22.8408 25.1122 23.2257 24.9277V28.7944L21.2924 28.9402V28.9403ZM13.5482 24.9278C13.9331 25.1122 14.9268 25.0399 15.4837 25.1695V28.9154L13.5504 28.7696L13.5482 24.9278ZM25.1611 28.5528V24.6862C26.0112 24.6862 26.4028 24.5022 27.0966 24.4445V28.1904C26.4825 28.3332 25.7752 28.4099 25.1611 28.5528ZM9.67732 24.4445C10.3711 24.5022 10.7627 24.6862 11.6128 24.6862V28.5528C11.0387 28.5051 10.211 28.3145 9.67732 28.1904V24.4445ZM5.80639 23.4778C6.39698 23.6153 7.09258 23.9072 7.74185 23.9612V27.7071C6.97856 27.6436 6.48616 27.2802 5.80639 27.2237V23.4778ZM29.0321 27.7071V23.9612C29.6814 23.9071 30.377 23.6153 30.9676 23.4778C30.9676 26.6622 31.3047 26.3811 30.142 27.2448C29.7966 27.5014 29.5678 27.6625 29.0321 27.7071ZM32.9031 25.4112V22.632C33.7823 22.4274 34.3103 21.8062 34.8385 21.6653V24.4445C34.3452 24.7745 33.4722 25.1104 32.9031 25.4112ZM1.93537 21.6653C2.46373 21.8062 2.99161 22.4274 3.87083 22.632V26.257C3.17111 25.8871 2.52232 25.4622 2.1307 24.7326C1.75471 24.0321 1.93537 22.6329 1.93537 21.6653ZM1.93537 18.4027C1.93537 17.7701 3.0852 16.711 3.26605 16.711C3.67186 16.711 4.20213 17.0752 4.67152 17.2406C6.76559 17.9782 7.07455 18.1129 9.48544 18.5945C15.8985 19.8758 25.8344 19.7362 31.9183 17.298C33.1072 16.8216 33.454 16.3107 34.3091 17.3609C35.1513 18.3952 34.9185 19.0571 33.7179 19.9414C31.1136 21.8594 26.6285 22.5663 23.4347 22.9615L18.3871 23.2377C17.3822 23.2377 16.8727 23.1077 15.8468 23.1153C14.9784 23.1217 14.1808 23.0655 13.3395 22.9615C10.3134 22.5871 7.51325 22.1457 4.74958 20.9085C3.90248 20.5293 1.93546 19.4778 1.93546 18.4027H1.93537ZM17.4193 13.5693H19.3547V17.436H17.4193V13.5693ZM21.2924 17.3402L21.2902 13.5693C21.8472 13.4397 22.8408 13.5121 23.2257 13.3276V17.1943L21.2924 17.3401V17.3402ZM13.5482 13.3277C13.9331 13.5121 14.9268 13.4398 15.4837 13.5694V17.3153L13.5504 17.1695L13.5482 13.3277ZM25.1611 16.9527V13.086C26.0112 13.086 26.4028 12.902 27.0966 12.8444V16.5903C26.563 16.7144 25.7352 16.905 25.1611 16.9527ZM9.67732 12.8444C10.3711 12.902 10.7627 13.086 11.6128 13.086V16.9527C11.0387 16.905 10.211 16.7144 9.67732 16.5903V12.8444ZM29.0321 16.1069V12.361C29.6505 12.3472 30.3945 12.011 30.9676 11.8777V15.6236C30.2878 15.6801 29.7954 16.0434 29.0321 16.1069ZM5.80639 11.8777C6.39698 12.0152 7.09258 12.307 7.74185 12.361V16.1069C6.97856 16.0434 6.48616 15.6801 5.80639 15.6236V11.8777ZM32.9032 14.6569V11.0319C33.7824 10.8273 34.3104 10.2061 34.8386 10.0652C34.8386 12.3825 35.3214 13.3788 32.9032 14.6569ZM1.93546 10.0652C2.46382 10.2061 2.9917 10.8273 3.87093 11.0319V14.6569C3.17121 14.2871 2.52241 13.8622 2.13079 13.1326C1.7548 12.4321 1.93546 11.0329 1.93546 10.0652ZM1.93546 6.80268C1.93546 4.86637 7.34266 3.2974 8.76031 2.98658C10.2849 2.65219 11.7816 2.43907 13.339 2.24357L18.3871 1.9677L23.4347 2.24395C26.5093 2.62432 29.2264 3.05047 32.0245 4.29702C32.8329 4.65718 34.8387 5.69138 34.8387 6.80268C34.8387 8.75939 29.3387 10.3283 28.014 10.6189C25.1533 11.2463 21.349 11.6378 18.3872 11.6378L13.3396 11.3615C11.7836 11.1691 10.2829 10.9529 8.76041 10.619C7.34602 10.3088 1.93556 8.73889 1.93556 6.80278L1.93546 6.80268ZM0 6.56101V12.6028C0 14.2536 1.08817 14.9607 1.4516 15.5028C1.10706 16.0168 0.809895 16.0737 0.479551 16.7068C0.220741 17.2028 0 17.6357 0 18.4028V24.2029C0 24.9701 0.220741 25.4029 0.479551 25.8989C0.809895 26.5322 1.10706 26.589 1.4516 27.1029C1.08817 27.6451 0 28.3522 0 30.003V35.8031C0 37.4538 1.08817 38.1609 1.4516 38.7031C1.08817 39.2452 0 39.9523 0 41.6031V47.6449C0 49.1816 1.46099 50.2787 2.49 50.9577C4.89888 52.5475 8.4806 53.2135 11.3529 53.7047C14.4328 54.2313 16.7525 54.17 19.8387 54.17C21.4318 54.17 26.5722 53.7495 27.4597 53.3242C28.5195 54.9051 31.431 57.068 32.9834 57.8358C38.4505 60.5399 43.9184 60.7543 49.5465 58.2281L50.9518 57.4568C53.0919 56.1689 55.2386 54.3524 56.6384 52.262C59.201 48.4352 60.0001 45.8236 60.0001 40.7574C60.0001 37.0126 58.5553 33.8457 56.6865 31.0171C53.8865 26.7791 47.8135 23.2363 42.5808 23.2363C41.2086 23.2363 40.1331 23.1834 38.7771 23.4242C38.1026 23.5439 37.3578 23.7919 36.7744 23.8405C36.7744 22.2526 37.041 18.226 36.416 16.9483C35.8745 15.8411 35.7483 16.1376 35.3228 15.5029C35.6673 14.9889 35.9645 14.932 36.2948 14.2989C36.5536 13.8029 36.7744 13.37 36.7744 12.6029V6.56111C36.7744 3.86043 32.2909 2.08523 30.1216 1.48561C22.8085 -0.536039 14.0685 -0.453664 6.65205 1.48475C4.5577 2.03217 0.000191782 3.85497 0.000191782 6.56111L0 6.56101Z" fill="white"/>
<path fill-rule="evenodd" clip-rule="evenodd" d="M29.0321 41.6032C29.0321 40.8574 29.2316 39.5137 29.3681 38.9181C29.9208 36.5081 30.9596 34.5379 32.6913 32.8125C33.2442 32.2617 33.7255 31.7964 34.3763 31.354C34.9793 30.9442 35.6664 30.5144 36.3757 30.2094C40.441 28.4612 45.2017 28.7238 48.6999 31.2615C55.619 36.2811 55.7047 45.2424 50.5342 50.3941C46.7029 54.2114 41.4988 55.0823 36.5475 53.0673C35.3965 52.5989 34.5712 51.9864 33.6445 51.2546C30.8202 49.0244 29.0321 45.195 29.0321 41.6034V41.6032ZM27.0967 40.8782C27.0967 43.8564 27.5016 46.568 29.0549 48.9514C29.2882 49.3094 29.4668 49.6342 29.7213 49.9775C30.8558 51.5087 31.6467 52.292 33.1608 53.4293C35.1374 54.9139 38.3056 56.1034 40.887 56.1034C43.8685 56.1034 46.5831 55.6989 48.9691 54.1473C49.8558 53.5708 51.175 52.6502 51.9235 51.9026L53.4519 50.046C53.7195 49.6904 53.8604 49.4183 54.1221 49.0237C56.6643 45.1907 56.7243 39.6074 54.7589 35.3592C53.4624 32.5566 50.6697 29.7669 47.8638 28.4717C43.1519 26.2967 37.3648 26.6677 33.2294 29.7248C32.9021 29.9667 32.559 30.1983 32.2698 30.458C30.6681 31.896 29.417 33.31 28.4671 35.3595C27.8038 36.7906 27.0967 38.8525 27.0967 40.8782Z" fill="white"/>
<path fill-rule="evenodd" clip-rule="evenodd" d="M42.58 49.3365V42.5697C44.3011 42.7127 45.4832 43.8593 45.4832 45.7114V46.1947C45.4832 48.0176 44.2722 49.1958 42.58 49.3364V49.3365ZM37.7412 37.4947V37.0114C37.7412 35.1593 38.9233 34.0127 40.6444 33.8697V40.6365C38.9233 40.4935 37.7412 39.3469 37.7412 37.4948V37.4947ZM40.6444 31.9363C37.8754 31.9363 35.8057 34.1892 35.8057 36.4072V38.0988C35.8057 40.3168 37.8753 42.5697 40.6444 42.5697V49.3365C37.2613 49.0553 37.7412 45.9662 37.7412 43.5364H35.8058V46.799C35.8058 49.0169 37.8754 51.2699 40.6445 51.2699V53.2032H42.58V51.2699C45.349 51.2699 47.4187 49.0169 47.4187 46.799V45.1073C47.4187 42.8894 45.3491 40.6364 42.58 40.6364V33.8696C45.9631 34.1508 45.4832 37.2399 45.4832 39.6697H47.4186V36.4072C47.4186 34.1892 45.349 31.9363 42.5799 31.9363V30.0029H40.6444V31.9363Z" fill="white"/>
<path fill-rule="evenodd" clip-rule="evenodd" d="M43.3058 6.68213C43.9064 6.52188 45.2019 5.22791 45.3623 4.62791H45.6042C45.7645 5.22791 47.06 6.52188 47.6606 6.68213V6.9238C47.06 7.08395 45.7645 8.37802 45.6042 8.97792H45.3623C45.2019 8.37802 43.9065 7.08395 43.3058 6.9238V6.68213ZM38.709 6.80292C38.709 8.29871 40.4143 7.38051 42.1235 8.46729C43.2345 9.17371 43.9856 10.0479 44.3011 11.3672C44.5439 12.3822 44.332 13.5697 45.4832 13.5697C46.9806 13.5697 46.0614 11.8662 47.1494 10.159C49.3889 6.64468 52.2574 8.72122 52.2574 6.80292C52.2574 6.22974 51.9354 5.95569 51.504 5.86374C49.7453 5.48893 48.5244 5.60464 47.1494 3.44687C46.0614 1.73959 46.9806 0.0361328 45.4832 0.0361328C44.9093 0.0361328 44.635 0.357781 44.543 0.788722C44.1671 2.54898 44.2843 3.76268 42.1235 5.13854C40.5252 6.15636 38.709 5.32322 38.709 6.80292Z" fill="white"/>
<path fill-rule="evenodd" clip-rule="evenodd" d="M51.0479 18.2817C51.6485 18.1215 52.944 16.8275 53.1044 16.2275H53.3463C53.5066 16.8274 54.8021 18.1215 55.4027 18.2817V18.5234C54.802 18.6836 53.5066 19.9776 53.3463 20.5775H53.1044C52.944 19.9776 51.6486 18.6836 51.0479 18.5234V18.2817ZM46.4512 18.4025C46.4512 20.3219 49.3149 18.2416 51.5592 21.7586C52.5781 23.3551 51.7441 25.1693 53.2254 25.1693C55.1457 25.1693 53.067 22.304 56.5851 20.0669C58.2943 18.9801 59.9996 19.8983 59.9996 18.4025C59.9996 17.8293 59.6776 17.5553 59.2462 17.4633C57.4875 17.0885 56.2666 17.2042 54.8916 15.0465C54.6739 14.7049 54.5065 14.3127 54.3896 13.8562C54.1338 12.8577 54.4159 11.6357 53.2255 11.6357C52.0743 11.6357 52.286 12.8232 52.0433 13.8382C51.6455 15.5018 50.3216 16.8243 48.6563 17.2216C47.6401 17.4641 46.4514 17.2525 46.4514 18.4024L46.4512 18.4025Z" fill="white"/>
</g>
<defs>
<clipPath id="clip0_1658_10878">
<rect width="60" height="60" fill="white"/>
</clipPath>
</defs>
</svg>
