<svg width="60" height="60" viewBox="0 0 60 60" fill="none" xmlns="http://www.w3.org/2000/svg">
<circle cx="30" cy="30" r="29.5" stroke="white" stroke-opacity="0.1"/>
<path d="M23.0598 24.9618C23.4527 21.4254 26.4419 18.75 30 18.75V18.75C33.5581 18.75 36.5473 21.4254 36.9402 24.9618L37.2549 27.7945C37.3069 28.2623 37.3329 28.4962 37.3721 28.7258C37.5128 29.5511 37.7822 30.3493 38.1705 31.0911C38.2785 31.2975 38.3995 31.4992 38.6417 31.9028L39.4326 33.221C40.2384 34.5639 40.6412 35.2354 40.354 35.7427C40.0668 36.25 39.2837 36.25 37.7176 36.25H22.2824C20.7163 36.25 19.9332 36.25 19.646 35.7427C19.3588 35.2354 19.7616 34.5639 20.5674 33.221L21.3583 31.9028C21.6005 31.4992 21.7215 31.2975 21.8295 31.0911C22.2178 30.3493 22.4872 29.5511 22.6279 28.7258C22.6671 28.4962 22.6931 28.2623 22.7451 27.7945L23.0598 24.9618Z" stroke="white" stroke-width="2"/>
<path d="M25 36.25C25 36.9066 25.1293 37.5568 25.3806 38.1634C25.6319 38.77 26.0002 39.3212 26.4645 39.7855C26.9288 40.2498 27.48 40.6181 28.0866 40.8694C28.6932 41.1207 29.3434 41.25 30 41.25C30.6566 41.25 31.3068 41.1207 31.9134 40.8694C32.52 40.6181 33.0712 40.2498 33.5355 39.7855C33.9998 39.3212 34.3681 38.77 34.6194 38.1634C34.8707 37.5568 35 36.9066 35 36.25" stroke="white" stroke-width="2" stroke-linecap="round"/>
<circle cx="50.5" cy="9.5" r="5.5" fill="#1CC4F9" stroke="#2B2B2B" stroke-width="2"/>
</svg>
