<svg width="61" height="60" viewBox="0 0 61 60" fill="none" xmlns="http://www.w3.org/2000/svg">
<path fill-rule="evenodd" clip-rule="evenodd" d="M53.8557 53.4156C53.2224 52.7613 52.5188 52.1535 51.8414 51.515L39.7024 40.0226C38.3099 38.7043 37.0106 37.461 35.617 36.1499C34.4467 35.0488 33.797 35.9789 33.0766 36.6612C32.376 37.3252 31.7667 37.9039 31.065 38.5678C30.426 39.1728 23.5088 45.8336 22.9806 46.1555C22.3358 45.7296 21.1705 44.4927 20.528 43.8841L3.75937 28.0077C3.99026 27.5392 4.69163 26.9076 5.14348 26.639C5.74521 26.9948 11.3976 32.4893 12.4212 33.4572L21.4831 42.0272C21.927 42.4474 22.7375 43.604 23.7454 42.8334L30.9801 35.9868C31.6184 35.3815 32.1649 34.8644 32.8047 34.2602C33.3611 33.7345 33.9982 33.0467 34.5794 32.6132C35.1792 32.9556 50.4599 47.5746 51.7223 48.7694C55.9774 52.7969 55.8583 53.4332 57.8426 51.3419L57.9251 56.0003L53.0357 55.9246C53.5305 55.2351 54.9922 54.5891 53.8557 53.4156V53.4156ZM19.9221 8.31153C20.5767 7.27305 24.1128 5.41825 25.6799 4.88784C28.2446 4.0197 30.9022 3.67364 33.8179 4.04273C36.5048 4.38302 38.8082 5.27205 40.7217 6.42684C46.9295 10.1739 50.207 17.5034 47.9405 24.7717C47.1893 27.1813 45.9512 29.0228 44.6234 30.5639C43.8186 31.4984 40.9291 34.0567 39.3278 34.4168C39.1418 34.1648 35.4261 30.5802 35.1431 30.4019C34.5178 30.0076 34.0857 30.323 33.7061 30.7069L30.5663 33.6895C29.9338 34.2897 29.07 35.2267 28.434 35.7254C27.9989 36.0664 27.4851 35.8291 26.8324 35.6573C22.2282 34.4435 18.7183 31.5286 16.4598 27.729C14.1689 23.875 13.8928 18.8814 15.4267 14.7123C16.0509 13.0167 17.4091 10.6603 18.4779 9.75329C20.8247 11.3902 23.065 15.1974 24.4145 13.9378C25.3384 13.0754 23.8051 12.1028 22.5351 10.9012C21.9715 10.3676 20.2599 8.88871 19.9221 8.31153ZM18.4779 6.88236C17.4749 6.2468 14.9368 3.35461 14.2385 3.02477C13.4078 2.6319 12.6912 3.30671 12.6912 3.78597C12.6912 4.72146 16.0745 7.04833 16.9683 8.31151C16.7096 8.77456 16.462 8.98304 16.122 9.41589C15.823 9.7965 15.5728 10.1515 15.3084 10.5509C9.82486 18.8274 12.3808 29.7934 20.9167 35.1798C21.8798 35.7877 25.0713 37.4606 26.4029 37.4887L23.0372 40.7334C22.4161 40.3298 8.46926 27.0085 6.496 25.1332C4.98865 23.7007 4.93008 24.0547 3.03668 25.8476C0.322857 28.4168 0.264291 27.4507 6.37009 33.2314L20.0187 46.1527C23.6454 49.5857 22.1643 49.7783 28.8874 43.4135C29.7405 42.6058 34.0332 38.4307 34.5794 38.0843L51.7188 54.2509C51.0255 55.2102 49.549 55.7439 49.549 57.0196C49.549 58.0844 51.6101 57.8536 52.1905 57.8532C53.3475 57.8529 54.5688 57.8169 55.7171 57.8493C60.2829 57.9785 60.0018 58.9234 59.9942 53.8001C59.9931 53.0847 59.8679 52.9367 59.8592 52.2608C59.847 51.3386 59.974 49.7629 59.8565 48.929C59.7059 47.8591 58.5941 47.8256 57.8783 48.4702C57.3036 48.9884 56.7117 49.7183 56.0903 50.1125L40.9636 35.8511C41.7589 35.6286 44.0992 33.9016 44.6762 33.3521C46.4186 31.6939 47.6392 30.2881 48.754 28.1619C50.3659 25.0867 50.6813 22.761 50.6813 19.2678C50.6813 16.0393 49.1712 12.2098 47.2318 9.6716C45.804 7.80311 44.5986 6.67786 42.6501 5.31565C40.1029 3.53577 35.9049 2 32.441 2C28.8817 2 26.8597 2.23442 23.7625 3.54946C22.3248 4.15979 20.2811 5.35995 19.0773 6.37827C18.8118 6.60295 18.7719 6.69621 18.4779 6.8824L18.4779 6.88236Z" fill="white"/>
<path fill-rule="evenodd" clip-rule="evenodd" d="M32.5671 26.5734V21.2618C35.2034 22.0075 35.1916 25.8244 32.5671 26.5734ZM30.5558 18.9425C27.9584 18.1417 27.8873 14.3892 30.5558 13.6309V18.9425ZM30.5558 11.4084C30.4273 11.6922 30.5733 11.5067 30.3151 11.6601C30.0191 11.8359 26.6294 12.5675 26.537 16.1695C26.4746 18.5957 28.3551 20.5729 30.5456 20.9442L30.5562 26.5737C29.5042 26.2795 28.7389 25.4103 28.5727 24.2454C28.2919 22.2801 26.6279 22.8677 26.5408 23.9192C26.3514 26.2118 28.5365 28.2254 30.5455 28.566C30.5782 29.6099 30.3249 30.8846 31.5611 30.8839C32.798 30.8828 32.5443 29.6117 32.5774 28.566C37.87 27.6921 37.8529 20.1412 32.5774 19.26L32.5663 13.6305C33.6306 13.924 34.3821 14.79 34.5495 15.9595C34.8302 17.9245 36.4923 17.3325 36.5806 16.2847C36.7715 14.0205 34.5757 11.9719 32.5774 11.6381C32.5443 10.5903 32.8257 9.41933 31.6558 9.32354C30.4143 9.22199 30.5558 10.3955 30.5558 11.4084L30.5558 11.4084Z" fill="white"/>
<path fill-rule="evenodd" clip-rule="evenodd" d="M32.0573 48.6831L33.3288 47.3868C33.781 47.6 35.2279 49.0961 35.6912 49.5369C37.0544 50.8335 37.5849 49.5311 38.4784 48.9283L38.5777 53.5662L33.6665 53.4934C36.3347 51.1259 33.8183 50.9772 32.0572 48.6831L32.0573 48.6831ZM29.5488 48.6831C29.5488 49.3341 31.8576 51.409 32.4422 51.7795C31.969 52.4481 30.1779 53.5633 30.1779 54.3994C30.1779 55.5035 31.1878 55.3371 32.3212 55.3475C33.0199 55.354 33.1207 55.4678 33.8209 55.4761L39.864 55.4714C40.9917 55.4714 40.6186 53.0826 40.6186 51.5411L40.487 46.4258C40.4216 45.9537 39.9697 45.5868 39.4867 45.5868C38.8142 45.5868 37.2091 47.2154 36.8448 47.7304C35.9924 47.1899 34.3333 44.9912 33.4486 44.9912C32.7487 44.9912 29.5488 48.0206 29.5488 48.6831V48.6831Z" fill="white"/>
<path fill-rule="evenodd" clip-rule="evenodd" d="M51.8388 30.5938C52.3542 30.8598 53.4629 32.1122 53.9928 32.5681C55.197 33.6044 55.9162 32.2339 56.591 31.781L56.6914 36.3907L51.781 36.3468C54.2138 34.2367 52.3474 33.8964 50.8491 32.2332C51.0823 31.7251 51.5387 31.2091 51.8388 30.5938H51.8388ZM48.5434 32.2491C48.5434 32.9836 48.9124 33.1374 49.3924 33.5889C49.7929 33.9652 50.107 34.3462 50.5562 34.631C50.0831 35.2997 48.292 36.4149 48.292 37.251C48.292 38.355 49.3022 38.1886 50.4353 38.1991L57.7267 38.3226C59.029 38.3226 58.7327 36.9363 58.7327 35.5838C58.7327 34.9086 58.7308 34.2335 58.7331 33.5587C58.7365 32.7327 58.6239 32.3225 58.603 31.6575C58.5722 30.6802 58.8065 29.2499 58.3584 28.7926C57.1584 27.568 55.8519 29.9359 54.8333 30.5819C54.5443 30.1732 52.291 27.9619 51.8141 27.9619C50.7506 27.9619 50.7537 28.4812 49.8884 29.9496C49.4327 30.7237 48.5434 31.7644 48.5434 32.2491Z" fill="white"/>
<path fill-rule="evenodd" clip-rule="evenodd" d="M3.90594 7.03799L9.79001 12.6038L9.13847 14.594C8.41273 14.0283 2.78275 8.74946 2.50243 8.26804L3.90596 7.03799H3.90594ZM12.0626 12.3607C12.0626 11.7835 11.0897 11.0227 10.7105 10.6637L5.86741 6.07873C5.42963 5.66429 4.77809 4.87389 4.15964 4.7097C3.28939 4.47852 1.73602 6.38409 0.645191 7.38728C-0.140247 8.10925 -0.263104 8.52046 0.580921 9.29718C1.21535 9.88085 8.80264 17.3288 9.50627 17.5287C10.8421 17.9086 10.9273 15.9396 11.2563 14.6934C11.3879 14.1946 12.0626 12.5188 12.0626 12.3607H12.0626Z" fill="white"/>
</svg>
