<svg width="56" height="56" viewBox="0 0 56 56" fill="none" xmlns="http://www.w3.org/2000/svg">
<path d="M50.3125 43.4547V52.5C50.3125 52.8481 50.1742 53.1819 49.9281 53.4281C49.6819 53.6742 49.3481 53.8125 49 53.8125C48.6519 53.8125 48.3181 53.6742 48.0719 53.4281C47.8258 53.1819 47.6875 52.8481 47.6875 52.5V43.4547C47.6799 40.9826 47.127 38.5427 46.0683 36.3088C45.0096 34.0749 43.4711 32.1021 41.5625 30.5309V44.2553C41.5608 44.5366 41.4688 44.8099 41.3 45.0349C41.1312 45.2599 40.8946 45.4247 40.6251 45.5051C40.3555 45.5855 40.0673 45.5771 39.8028 45.4813C39.5384 45.3855 39.3117 45.2072 39.1562 44.9728L36.82 41.4072C36.8064 41.3868 36.794 41.3656 36.7828 41.3438C36.3805 40.638 35.7142 40.121 34.9307 39.9064C34.1471 39.6918 33.3105 39.7973 32.6047 40.1997C31.8989 40.602 31.3819 41.2683 31.1673 42.0518C30.9528 42.8354 31.0583 43.672 31.4606 44.3778L36.3125 51.7803C36.4753 52.0699 36.5222 52.4105 36.4437 52.7333C36.3652 53.0561 36.1673 53.3372 35.8898 53.5198C35.6122 53.7024 35.2758 53.773 34.9483 53.7173C34.6208 53.6616 34.3266 53.4838 34.125 53.2197L29.2556 45.7822C29.2425 45.7603 29.2294 45.7406 29.2184 45.7188C28.5376 44.4349 28.374 42.9392 28.7612 41.5386C29.1484 40.138 30.0571 38.9387 31.3006 38.1869C32.5442 37.4351 34.0284 37.1878 35.4486 37.4958C36.8687 37.8038 38.1171 38.6437 38.9375 39.8431V14C38.9375 13.884 38.8914 13.7727 38.8094 13.6906C38.7273 13.6086 38.616 13.5625 38.5 13.5625H35C34.6519 13.5625 34.3181 13.4242 34.0719 13.1781C33.8258 12.9319 33.6875 12.5981 33.6875 12.25C33.6875 11.9019 33.8258 11.5681 34.0719 11.3219C34.3181 11.0758 34.6519 10.9375 35 10.9375H38.5C39.3122 10.9375 40.0912 11.2602 40.6655 11.8345C41.2398 12.4088 41.5625 13.1878 41.5625 14V27.2759C44.243 29.041 46.4449 31.4421 47.9717 34.2652C49.4985 37.0882 50.3027 40.2453 50.3125 43.4547ZM18.8125 12.25C18.8125 11.9019 18.6742 11.5681 18.4281 11.3219C18.1819 11.0758 17.8481 10.9375 17.5 10.9375H14C13.1878 10.9375 12.4088 11.2602 11.8345 11.8345C11.2602 12.4088 10.9375 13.1878 10.9375 14V43.75C10.9375 44.0981 11.0758 44.4319 11.3219 44.6781C11.5681 44.9242 11.9019 45.0625 12.25 45.0625C12.5981 45.0625 12.9319 44.9242 13.1781 44.6781C13.4242 44.4319 13.5625 44.0981 13.5625 43.75V14C13.5625 13.884 13.6086 13.7727 13.6906 13.6906C13.7727 13.6086 13.884 13.5625 14 13.5625H17.5C17.8481 13.5625 18.1819 13.4242 18.4281 13.1781C18.6742 12.9319 18.8125 12.5981 18.8125 12.25ZM34.1775 21.8225C33.9314 21.5767 33.5978 21.4387 33.25 21.4387C32.9022 21.4387 32.5686 21.5767 32.3225 21.8225L27.5625 26.5803V3.5C27.5625 3.1519 27.4242 2.81806 27.1781 2.57192C26.9319 2.32578 26.5981 2.1875 26.25 2.1875C25.9019 2.1875 25.5681 2.32578 25.3219 2.57192C25.0758 2.81806 24.9375 3.1519 24.9375 3.5V26.5803L20.1775 21.8225C19.9287 21.5907 19.5996 21.4644 19.2596 21.4704C18.9196 21.4764 18.5951 21.6142 18.3547 21.8547C18.1142 22.0951 17.9764 22.4196 17.9704 22.7596C17.9644 23.0996 18.0907 23.4287 18.3225 23.6775L25.3225 30.6775C25.5686 30.9233 25.9022 31.0613 26.25 31.0613C26.5978 31.0613 26.9314 30.9233 27.1775 30.6775L34.1775 23.6775C34.4233 23.4314 34.5613 23.0978 34.5613 22.75C34.5613 22.4022 34.4233 22.0686 34.1775 21.8225Z" fill="white"/>
</svg>
