<svg width="45" height="60" viewBox="0 0 45 60" fill="none" xmlns="http://www.w3.org/2000/svg">
<g clip-path="url(#clip0_1658_10867)">
<path fill-rule="evenodd" clip-rule="evenodd" d="M24.2276 44.4142C27.9468 44.4142 32.1909 42.3242 35.1767 40.3126C35.265 40.6462 35.631 41.2031 35.8259 41.5346L37.8496 45.1234C38.2414 45.808 40.4377 49.6212 40.5348 50.0392L37.2443 49.3653C36.6483 49.2453 36.1919 49.1686 35.5969 49.0304C32.59 48.3324 33.2319 48.8533 31.9825 52.0991C31.8016 52.5688 30.8734 55.6361 30.5175 55.8986C30.4361 55.5465 30.3661 55.4561 30.1918 55.1712L27.3665 50.1624C26.8356 49.2344 26.2789 48.2656 25.7477 47.3377C25.4721 46.8564 25.2408 46.4017 24.9485 45.9151C24.7067 45.5123 24.2903 44.9081 24.2273 44.4142H24.2276ZM13.7445 55.8986C13.4341 55.67 13.2386 54.7676 12.9784 54.0914L11.6031 50.2016C10.8892 48.1165 10.5423 48.6618 7.01766 49.3653L3.72714 50.0392C3.83986 49.5526 4.10567 49.2397 4.34955 48.7903C4.57882 48.3678 4.79 48.0034 5.03076 47.6005L9.08528 40.3123C11.9381 42.2343 16.3343 44.4139 20.0343 44.4139C19.9699 45.1909 13.9678 54.9332 13.7445 55.8982V55.8986ZM0 21.4456C0 25.7677 0.614754 28.501 2.31463 32.2418C3.15483 34.0902 4.37669 35.8866 5.79546 37.2944C6.05778 37.5544 6.21921 37.8075 6.46066 38.0315C6.80613 38.3518 6.95504 38.3893 7.22153 38.7893L0.487072 50.7641C-0.0480114 51.6328 -0.11481 52.9692 1.16445 52.9692C2.48615 52.9692 3.96963 52.461 5.29029 52.1981C6.33506 51.9902 8.40964 51.4144 9.43458 51.3286C9.72299 51.8771 10.0312 52.8905 10.2647 53.5405C10.8596 55.1964 11.6198 57.9039 12.3093 59.3351C12.5498 59.8339 12.9324 60.0009 13.5114 60.0009C14.3109 60.0009 14.5906 59.1349 14.903 58.5885C15.2495 57.9833 15.5741 57.4289 15.9175 56.7964C16.2922 56.1065 21.7283 46.2347 22.1308 45.9383C22.4377 46.1644 22.4756 46.4171 22.6909 46.7811L29.8189 59.4146C30.2649 60.1633 31.4781 60.2179 31.914 59.4142C32.4797 58.3719 33.506 54.9525 33.9666 53.6276C34.23 52.8702 34.4537 52.0388 34.827 51.3293C35.1756 51.3584 35.5121 51.4753 35.7872 51.5352C37.2641 51.8558 41.995 52.9699 43.0968 52.9699C44.3524 52.9699 44.264 51.5523 43.8198 50.8362C42.3039 48.3919 40.4071 44.6929 38.8367 42.0215C38.5061 41.4597 38.2741 40.9721 37.9665 40.4358C37.6555 39.894 37.34 39.3606 37.0401 38.79C37.2773 38.4337 37.4339 38.3497 37.738 38.0858C39.2329 36.7886 41.1603 33.9733 41.947 32.2425C42.552 30.9117 43.1152 29.7128 43.5171 28.0799C44.7181 23.1978 44.5017 18.3636 42.6163 13.7271C41.9724 12.1433 41.1186 10.593 40.1013 9.22617C39.7308 8.72808 39.4545 8.2853 39.0485 7.82467C36.394 4.812 33.101 2.44898 29.2511 1.15843C28.3942 0.871061 27.3007 0.275318 26.5308 0.912364C25.6635 1.63027 26.2834 2.75385 27.1629 3.02477C28.5132 3.4406 29.4404 3.77942 30.6681 4.30306L32.186 5.11967C33.4698 5.83022 35.3057 7.24293 36.314 8.34936C40.8298 13.3057 42.9475 19.8298 41.422 26.558C40.5512 30.3978 38.7991 33.4147 36.1706 36.2747C35.9567 36.5075 35.7792 36.6013 35.5535 36.8257C33.1344 39.2258 29.9695 40.9 26.5879 41.6336C25.9414 41.774 25.3204 41.885 24.514 42.0082C21.1215 42.5259 17.0378 41.9161 14.0151 40.3935C12.8813 39.8223 11.8717 39.3459 10.8819 38.6241C9.93905 37.9367 8.97186 37.1635 8.14836 36.3353C6.44813 34.6247 5.15183 32.611 4.1161 30.4314C2.34003 26.6931 1.9549 22.0438 2.82362 17.9593C3.4756 14.8938 4.86515 12.1688 6.77134 9.74351C7.84012 8.38331 9.07206 7.22438 10.4654 6.19425C10.9139 5.86278 11.4347 5.504 11.9291 5.20613L15.1594 3.65131C16.1186 3.29324 18.1998 3.16828 18.1365 1.77378C18.1086 1.16018 17.536 0.587891 16.8899 0.587891C16.2379 0.587891 14.0304 1.47276 13.3973 1.76153C11.6125 2.57534 9.76788 3.51445 8.3004 4.83685C7.24032 5.79207 6.19312 6.67589 5.27638 7.77112C2.21131 11.4324 0.000347908 16.2414 0.000347908 21.4473L0 21.4456Z" fill="white"/>
<path fill-rule="evenodd" clip-rule="evenodd" d="M6.98877 22.266C6.98877 20.092 7.53951 17.918 8.35258 16.0209C9.03795 14.4216 10.3043 12.6599 11.4437 11.5136C15.9001 7.03011 22.4404 5.84528 28.3385 8.40361C31.5546 9.79847 34.5233 12.7852 35.9097 16.0209C38.4484 21.9458 37.2815 28.5283 32.8185 33.0185C29.1471 36.7123 23.9604 38.2331 18.8191 37.0826C11.9934 35.5551 6.98877 29.332 6.98877 22.266ZM4.65918 21.3287C4.65918 24.5961 4.87662 26.9263 6.3274 29.8458C7.2758 31.7549 8.39885 33.345 9.81309 34.7763L12.0439 36.6335C21.0679 42.9382 33.0903 39.7351 37.9738 29.7681C40.6677 24.2703 40.0018 17.2064 36.459 12.187C34.6625 9.64165 32.6477 7.87578 29.7416 6.40602C25.208 4.11335 19.1377 4.08255 14.5972 6.36647L10.8617 8.81909C10.3812 9.28043 9.92303 9.56185 9.29019 10.2847C6.68749 13.2578 4.65918 17.2502 4.65918 21.3287Z" fill="white"/>
<path fill-rule="evenodd" clip-rule="evenodd" d="M14.7929 20.1566C15.5343 20.1398 16.6205 19.8909 17.4381 19.7709C18.5176 19.6123 19.3996 19.6235 19.8974 19.081C20.2238 18.7254 21.8902 15.4201 22.0144 14.8828H22.2475C22.3568 15.355 24.0167 18.6739 24.3099 19.019C24.8485 19.6529 25.5384 19.5714 26.723 19.7551L29.4694 20.1563C28.9545 20.9298 25.975 23.3194 25.975 24.0233C25.975 25.4641 26.674 27.7858 26.674 28.9451C21.5437 26.2142 22.7235 26.3034 19.8017 27.7732C19.0391 28.1568 18.3346 28.5478 17.5887 28.9451C17.5887 28.272 17.8295 27.2604 17.938 26.6013C18.4682 23.3905 18.6961 24.1413 16.6278 22.0604C16.1202 21.5497 15.1426 20.6806 14.7933 20.1563L14.7929 20.1566ZM18.2873 17.2269L12.1784 18.1118C11.5073 18.2497 10.9492 18.6011 10.9492 19.3362C10.9492 20.0023 11.5431 20.4601 11.9091 20.8315C12.2031 21.1297 12.2852 21.1776 12.5973 21.4283C13.3418 22.0257 14.9797 24.0293 15.8412 24.6096C15.6028 25.6394 15.4623 26.8922 15.2932 27.9254C15.0027 29.6987 14.1061 32.3442 15.9577 32.3442C16.7927 32.3442 21.5667 29.3504 22.131 29.3504C22.704 29.3504 27.5145 32.3442 28.3043 32.3442C29.9704 32.3442 29.3651 30.3123 29.2523 29.6322C29.1497 29.0116 29.0756 28.5621 28.9698 27.924C28.8091 26.9534 28.6484 25.5936 28.4205 24.6096C29.022 24.2043 30.3458 22.7374 30.9533 22.1189C31.5489 21.5126 33.3124 20.2956 33.3124 19.3362C33.3124 18.6361 32.7937 18.277 32.1789 18.1328L28.1383 17.5104C27.4808 17.4082 26.5787 17.2265 25.9743 17.2265C25.822 16.5689 24.6982 14.5419 24.3437 13.8282C23.4339 11.9979 23.2495 10.8984 22.0141 10.8984C21.0709 10.8984 20.5515 12.552 19.9176 13.8282C19.5631 14.5419 18.4393 16.5689 18.287 17.2265L18.2873 17.2269Z" fill="white"/>
<path fill-rule="evenodd" clip-rule="evenodd" d="M20.9662 1.05463C20.9662 2.8072 23.2958 2.8072 23.2958 1.05463C23.2958 0.403229 22.8028 0.0521538 22.2701 0H21.9915C21.4592 0.0521538 20.9658 0.403579 20.9658 1.05463H20.9662Z" fill="white"/>
</g>
<defs>
<clipPath id="clip0_1658_10867">
<rect width="44.2623" height="60" fill="white"/>
</clipPath>
</defs>
</svg>
