<svg width="24" height="21" viewBox="0 0 24 21" fill="none" xmlns="http://www.w3.org/2000/svg">
<path d="M5.0598 7.96177C5.45273 4.4254 8.44187 1.75 12 1.75V1.75C15.5581 1.75 18.5473 4.4254 18.9402 7.96177L19.2549 10.7945C19.3069 11.2623 19.3329 11.4962 19.3721 11.7258C19.5128 12.5511 19.7822 13.3493 20.1705 14.0911C20.2785 14.2975 20.3995 14.4992 20.6417 14.9028L21.4326 16.221C22.2384 17.5639 22.6412 18.2354 22.354 18.7427C22.0668 19.25 21.2837 19.25 19.7176 19.25H4.28238C2.71627 19.25 1.93322 19.25 1.64599 18.7427C1.35876 18.2354 1.76164 17.5639 2.5674 16.221L3.35832 14.9028C3.60046 14.4992 3.72153 14.2975 3.82954 14.0911C4.21781 13.3493 4.48722 12.5511 4.62794 11.7258C4.66709 11.4962 4.69308 11.2623 4.74505 10.7945L5.0598 7.96177Z" stroke="white" stroke-width="2"/>
</svg>
