<svg width="58" height="60" viewBox="0 0 58 60" fill="none" xmlns="http://www.w3.org/2000/svg">
<g clip-path="url(#clip0_1658_10848)">
<path fill-rule="evenodd" clip-rule="evenodd" d="M28.5366 57.5C25.9607 57.5 22.0937 56.6958 19.8914 55.5848L17.3941 54.2257C17.0711 54.0207 16.878 53.9361 16.5529 53.6983C9.60688 48.6165 6.04108 40.4171 7.99229 31.552C8.87514 27.541 10.8641 24.1171 13.6789 21.2812C14.1391 20.8176 14.5159 20.3845 15.0116 19.9989C17.7663 17.8557 20.1758 16.4139 23.7709 15.5736C29.3841 14.2617 34.7937 15.2603 39.5848 18.2441C47.1732 22.9698 51.0953 31.9487 49.085 40.827C48.4896 43.4567 48.016 44.4518 46.9011 46.6268C45.9973 48.3901 43.5316 51.3464 42.1327 52.4477L39.9117 54.0852C36.3669 56.1859 32.8688 57.4999 28.5366 57.4999L28.5366 57.5ZM26.6755 9.99997H30.3977V12.5H26.6755V9.99997ZM13.1516 13.625C12.5916 12.5587 12.2831 12.7025 12.2831 11.875C12.2831 10.9834 13.0848 10.565 13.7815 10.735C14.4136 10.8892 15.0611 11.9646 15.1368 12.25C14.7661 12.3497 14.4658 12.6694 14.1634 12.8943C13.8364 13.1375 13.4633 13.4148 13.1516 13.625V13.625ZM42.9289 10.5C45.6251 10.5 43.8401 13.0654 43.7975 13.25C43.2254 13.202 43.1269 12.9838 42.6813 12.7494C42.2717 12.5339 41.9567 12.3342 41.5642 12.125C41.8547 11.6878 42.2882 10.4999 42.9289 10.4999V10.5ZM24.8144 6.87498C25.0181 6.48721 25.0853 6.24995 25.683 6.24995H31.3903C31.9879 6.24995 32.0551 6.48719 32.2588 6.87498C32.0551 7.26271 31.9879 7.49995 31.3903 7.49995H25.683C25.0853 7.49995 25.018 7.26271 24.8144 6.87498ZM22.333 3.12499C22.5367 2.73722 22.6038 2.49996 23.2015 2.49996H33.8717C34.4694 2.49996 34.5366 2.7372 34.7402 3.12499C34.5366 3.51272 34.4694 3.74996 33.8717 3.74996H23.2015C22.6038 3.74996 22.5367 3.51272 22.333 3.12499ZM19.8516 2.875C19.8516 5.24281 20.9797 5.5958 22.333 6.24998C22.333 7.42129 22.3062 7.65495 22.7413 8.46365C23.1199 9.16743 23.5324 9.39727 24.1941 9.74998V12.875C23.104 12.9664 21.506 13.5508 20.5793 13.8581C19.3866 14.2535 17.8108 15.1466 17.3702 15.25C17.2824 14.9188 16.9415 14.5383 16.7498 14.25C17.4821 13.2429 19.2016 13.3267 17.5292 11.0897C16.1615 9.2602 15.7549 8.12501 13.1517 8.12501C12.2812 8.12501 11.2262 8.75654 10.7637 9.21918C10.3519 9.63105 9.67767 10.9792 9.67767 11.75C9.67767 13.1081 10.2163 13.8551 10.7943 14.625C11.0867 15.0145 11.3186 15.366 11.6258 15.7873C12.9741 17.6362 13.7635 15.985 14.7646 15.75C14.861 16.1138 15.057 16.2368 15.2609 16.625C9.396 20.5817 4.96289 28.0711 4.96289 35.125C4.96289 39.4184 5.36126 42.6988 7.15472 46.2917C7.84844 47.6815 8.38039 48.7116 9.25277 49.928C9.49701 50.2685 9.57177 50.4074 9.8297 50.7218C11.4162 52.6556 12.7797 54.1335 14.8876 55.626C18.4265 58.1316 22.9987 60 27.6681 60C31.8197 60 35.1198 59.512 38.5046 57.7926C41.3208 56.362 41.5997 56.0935 43.7275 54.4296C45.5772 52.9831 47.6141 50.3912 48.8915 48.2572C53.2129 41.0378 53.1993 31.4394 48.8915 24.2428C47.4243 21.7917 44.5515 18.1441 41.9363 16.75C42.059 16.2871 42.3084 16.1621 42.4326 15.625C43.9902 15.9906 44.2946 17.762 46.0314 14.3757C46.396 13.6648 47.0324 12.6838 47.002 11.6367C46.8918 7.83671 42.0693 6.57058 40.1712 9.47164C39.7835 10.0642 38.5864 12.0558 38.5864 12.75C38.5864 13.6014 39.7338 14.1408 40.1993 14.25C40.1609 14.7156 40.0049 14.9114 39.8271 15.25C39.4603 15.2192 37.4596 14.221 36.5836 13.8928C35.9621 13.66 35.4825 13.5178 34.7947 13.32C34.2783 13.1715 33.3863 12.9175 32.8791 12.875V9.75001C34.4751 8.89919 34.7401 8.10504 34.7401 6.25C36.0998 5.5927 37.2216 5.24343 37.2216 2.87503C37.2216 1.4442 35.8021 0 34.368 0H22.7052C21.2911 0 19.8515 1.45033 19.8515 2.87503L19.8516 2.875Z" fill="white"/>
<path fill-rule="evenodd" clip-rule="evenodd" d="M34.368 23.3746C35.1221 23.3746 35.6737 22.5902 35.7328 21.8747C36.5693 21.9448 38.3023 23.4318 38.9586 23.8746C38.5803 24.4438 37.2216 25.3941 37.2216 26.1246C37.2216 26.9091 37.8077 27.4996 38.5864 27.4996C39.3116 27.4996 40.2548 26.1308 40.8197 25.7496L42.3598 27.948C42.588 28.2907 42.7065 28.4493 42.8049 28.8746C41.858 29.3323 41.316 29.2547 41.316 30.4996C41.316 31.2994 41.9221 31.6246 42.6808 31.6246C43.0535 31.6246 43.4812 31.3529 43.9215 31.2496C43.9378 31.9828 44.5419 33.2221 44.5419 34.9996H42.5568C41.0174 34.9996 41.0174 37.4996 42.5568 37.4996H44.5419C44.5419 38.4567 44.3339 39.4565 44.1131 40.3176C44.0045 40.7413 43.9324 40.7597 43.9216 41.2496C43.456 41.0246 42.7474 40.7189 42.2847 40.8457C40.7793 41.2583 41.0898 43.3558 42.8049 43.4996C42.7353 44.3424 41.2593 46.0883 40.8198 46.7496C40.2548 46.3684 39.3116 44.9996 38.5865 44.9996C37.8078 44.9996 37.2217 45.5901 37.2217 46.3746C37.2217 47.1052 38.5803 48.0554 38.9587 48.6246C38.477 48.9495 38.0573 49.3472 37.5392 49.6946C37.1672 49.9439 36.24 50.5347 35.8569 50.6246C35.4025 49.6707 35.4796 49.1246 34.2439 49.1246C33.45 49.1246 33.1273 49.7352 33.1273 50.4996C33.1273 50.8751 33.3969 51.306 33.4995 51.7496C32.7302 51.7669 31.6096 52.3747 29.7773 52.3747V50.3746C29.7773 48.8238 27.2959 48.8238 27.2959 50.3746V52.3747C26.3458 52.3747 25.3535 52.1651 24.4988 51.9426C24.0782 51.8332 24.06 51.7605 23.5737 51.7496C25.0977 48.5496 21.5239 48.403 21.3404 50.6247C20.5039 50.5545 18.7709 49.0675 18.1145 48.6247C18.4929 48.0554 19.8515 47.1052 19.8515 46.3747C19.8515 45.5901 19.2654 44.9997 18.4868 44.9997C17.7616 44.9997 16.8184 46.3685 16.2535 46.7497C15.8188 46.0958 14.4737 44.513 14.2683 43.6247C15.2152 43.1669 15.7572 43.2445 15.7572 41.9997C15.7572 41.1998 15.1511 40.8747 14.3923 40.8747C14.0196 40.8747 13.5919 41.1463 13.1516 41.2496C13.1413 40.7832 13.0934 40.8099 12.9869 40.4156C12.7518 39.5458 12.5313 38.4343 12.5313 37.4996H14.5164C16.0558 37.4996 16.0558 34.9996 14.5164 34.9996H12.5313C12.5313 33.2183 13.1358 31.9646 13.1516 31.2496C13.6172 31.4747 14.3257 31.7804 14.7885 31.6536C16.2939 31.241 15.9834 29.1434 14.2683 28.9996C14.3379 28.1569 15.8139 26.4109 16.2535 25.7497C16.8184 26.1308 17.7616 27.4997 18.4868 27.4997C19.2654 27.4997 19.8515 26.9092 19.8515 26.1247C19.8515 25.3941 18.4929 24.4439 18.1145 23.8747C18.7636 23.4368 20.3346 22.0816 21.2163 21.8747C21.7399 22.9741 21.5901 23.3747 22.9534 23.3747C23.3346 23.3747 23.9459 22.9715 23.9459 21.9996C23.9459 21.6241 23.6763 21.1932 23.5737 20.7496L25.3093 20.3732C25.9465 20.2229 26.4914 20.1246 27.2959 20.1246C27.2959 21.9526 26.9656 23.2496 28.6607 23.2496C30.0927 23.2496 29.7773 21.4406 29.7773 20.1246C31.5914 20.1246 32.7201 20.7321 33.4995 20.7496C32.8619 22.0883 32.9262 23.3746 34.368 23.3746V23.3746ZM9.92578 35.4996C9.92578 38.914 10.2283 41.3633 11.7026 44.3345C13.3103 47.5744 14.3307 48.4771 16.5327 50.5933L18.4458 52.0409C24.8387 56.022 32.2306 56.0244 38.6274 52.0409C38.9534 51.8379 38.9654 51.7957 39.2813 51.5747C40.1144 50.9918 41.6054 49.766 42.272 48.9628C42.5022 48.6854 42.5101 48.6219 42.7738 48.3433C43.186 47.9081 43.3972 47.5833 43.7479 47.0747L45.4123 44.2515C48.3345 38.2791 47.5402 30.9265 43.7479 25.4246C42.4392 23.526 40.5721 21.6694 38.6274 20.4584L36.479 19.2478C31.7353 16.8918 25.2798 16.8848 20.5118 19.2898C18.3882 20.3609 16.8823 21.4326 15.2918 23.0308C12.2954 26.042 9.92578 30.8769 9.92578 35.4996Z" fill="white"/>
<path fill-rule="evenodd" clip-rule="evenodd" d="M17.3701 35.6255C17.3701 37.8505 17.4596 39.0279 18.4031 41.0848C19.4191 43.2998 21.4749 45.3723 23.6543 46.4193C31.1294 50.0105 39.7031 44.433 39.7031 36.6255C39.7031 33.3607 39.0241 31.5429 37.2768 29.1949C35.1859 26.3854 34.2439 28.971 34.2439 29.0005C34.2439 30.2718 35.7014 30.5526 36.7091 33.3919C37.9745 36.9574 36.626 41.0415 33.7139 43.2165C32.9475 43.7888 32.4439 44.0776 31.4642 44.4499C29.4012 45.2339 26.9323 45.1272 24.9781 44.2107C20.0429 41.8961 18.1065 35.6742 21.8342 30.748C22.1571 30.3213 22.8293 29.8316 22.8293 29.1256C22.8293 28.3323 21.2546 26.066 18.6513 30.9163C18.0563 32.0249 17.3701 33.981 17.3701 35.6255V35.6255Z" fill="white"/>
<path fill-rule="evenodd" clip-rule="evenodd" d="M27.2959 36.25C27.2959 34.6429 29.7773 34.6429 29.7773 36.25C29.7773 37.8572 27.2959 37.8572 27.2959 36.25ZM27.2959 32.75C26.1812 32.8435 24.8145 34.5794 24.8145 35.875V36.625C24.8145 38.236 26.5653 40 28.1644 40H28.9089C30.5079 40 32.2588 38.236 32.2588 36.625V35.875C32.2588 34.5794 30.8921 32.8435 29.7774 32.75C29.7774 31.7085 29.7732 30.666 29.7777 29.6246C29.7846 28.0506 29.7167 27.5 28.4126 27.5C27.3234 27.5 27.2878 28.4095 27.295 29.4991C27.3022 30.582 27.2959 31.6669 27.2959 32.75L27.2959 32.75Z" fill="white"/>
<path fill-rule="evenodd" clip-rule="evenodd" d="M50.8691 7C50.828 6.7319 51.0186 6.04334 51.388 5.64775C52.6114 4.3377 54.4612 5.279 54.5612 6.77385C54.7141 9.05995 51.2556 9.51597 50.8691 6.99997V7ZM48.3877 6.62504C48.3877 12.8044 57.0728 12.8044 57.0728 6.62504C57.0728 4.36907 55.1925 2.5 52.4821 2.5C50.3634 2.5 48.3877 4.49051 48.3877 6.62504Z" fill="white"/>
<path fill-rule="evenodd" clip-rule="evenodd" d="M2.48145 17.5C2.48145 15.8928 4.96288 15.8928 4.96288 17.5C4.96288 19.1072 2.48145 19.1072 2.48145 17.5ZM0 17.125V17.875C0 19.486 1.75089 21.25 3.34997 21.25H4.09442C5.69344 21.25 7.44433 19.486 7.44433 17.875V17.125C7.44433 15.514 5.69344 13.75 4.09442 13.75H3.34997C1.75089 13.75 0 15.514 0 17.125Z" fill="white"/>
<path fill-rule="evenodd" clip-rule="evenodd" d="M4.96289 3.62469C4.96289 5.49419 7.44432 5.49419 7.44432 3.62469C7.44432 2.11469 4.96289 2.11469 4.96289 3.62469Z" fill="white"/>
<path fill-rule="evenodd" clip-rule="evenodd" d="M38.4619 3.62469C38.4619 5.49419 40.9434 5.49419 40.9434 3.62469C40.9434 2.11469 38.4619 2.11469 38.4619 3.62469Z" fill="white"/>
<path fill-rule="evenodd" clip-rule="evenodd" d="M52.1104 21.1247C52.1104 22.9942 54.5918 22.9942 54.5918 21.1247C54.5918 19.6147 52.1104 19.6147 52.1104 21.1247Z" fill="white"/>
<path fill-rule="evenodd" clip-rule="evenodd" d="M0 44.8747C0 46.7442 2.48145 46.7442 2.48145 44.8747C2.48145 43.3647 0 43.3647 0 44.8747Z" fill="white"/>
<path fill-rule="evenodd" clip-rule="evenodd" d="M50.8691 52.3747C50.8691 54.2442 53.3506 54.2442 53.3506 52.3747C53.3506 50.8647 50.8691 50.8647 50.8691 52.3747Z" fill="white"/>
<path fill-rule="evenodd" clip-rule="evenodd" d="M7.44434 56.1247C7.44434 57.9942 9.92579 57.9942 9.92579 56.1247C9.92579 54.6147 7.44434 54.6147 7.44434 56.1247Z" fill="white"/>
</g>
<defs>
<clipPath id="clip0_1658_10848">
<rect width="57.0732" height="60" fill="white"/>
</clipPath>
</defs>
</svg>
