<svg width="60" height="60" viewBox="0 0 60 60" fill="none" xmlns="http://www.w3.org/2000/svg">
<g clip-path="url(#clip0_2208_4790)">
<path d="M6.25 12.875V1.875M6.25 25.375V32.875M20 31.875V24.375M20 48.125V58.125M37 44.625V54.625M43.125 17.125L50.625 8.125M50.625 8.125L58.125 17.125M50.625 8.125V47.125M10.625 22.875C10.625 24.375 9.625 25.375 8.125 25.375H4.375C2.875 25.375 1.875 24.375 1.875 22.875V15.375C1.875 13.875 2.875 12.875 4.375 12.875H8.125C9.625 12.875 10.625 13.875 10.625 15.375V22.875ZM24.375 45.625C24.375 47.125 23.375 48.125 21.875 48.125H18.125C16.625 48.125 15.625 47.125 15.625 45.625V34.375C15.625 32.875 16.625 31.875 18.125 31.875H21.875C23.375 31.875 24.375 32.875 24.375 34.375V45.625ZM41.375 42.125C41.375 43.625 40.375 44.625 38.875 44.625H35.125C33.625 44.625 32.625 43.625 32.625 42.125V32.125C32.625 30.625 33.625 29.625 35.125 29.625H38.875C40.375 29.625 41.375 30.625 41.375 32.125V42.125Z" stroke="white" stroke-width="2" stroke-miterlimit="10" stroke-linecap="round" stroke-linejoin="round"/>
</g>
<defs>
<clipPath id="clip0_2208_4790">
<rect width="60" height="60" fill="white"/>
</clipPath>
</defs>
</svg>
