<svg width="30" height="30" viewBox="0 0 30 30" fill="none" xmlns="http://www.w3.org/2000/svg">
<path d="M25.6364 11.625V8.7C25.6364 7.20938 24.5964 6 23.3153 6H4.32109C3.03882 6 2 7.20938 2 8.7V21.3C2 22.7906 3.04 24 4.32109 24H23.3153C24.5975 24 25.6364 22.7906 25.6364 21.3V18.375M24.4545 15H24.4664M20.4364 11.625H26.1091C26.6106 11.625 27.0915 11.8146 27.4462 12.1522C27.8008 12.4898 28 12.9476 28 13.425V16.575C28 17.0524 27.8008 17.5102 27.4462 17.8478C27.0915 18.1854 26.6106 18.375 26.1091 18.375H20.4364C19.9349 18.375 19.4539 18.1854 19.0993 17.8478C18.7447 17.5102 18.5455 17.0524 18.5455 16.575V13.425C18.5455 12.9476 18.7447 12.4898 19.0993 12.1522C19.4539 11.8146 19.9349 11.625 20.4364 11.625Z" stroke="white" stroke-width="1.5" stroke-linecap="round" stroke-linejoin="round"/>
</svg>
