<svg width="40" height="40" viewBox="0 0 40 40" fill="none" xmlns="http://www.w3.org/2000/svg">
<path d="M3.33337 20.0001C3.33337 16.8847 3.33337 15.327 4.00325 14.1667C4.44209 13.4067 5.07328 12.7755 5.83337 12.3366C6.99363 11.6667 8.55132 11.6667 11.6667 11.6667H28.3334C31.4488 11.6667 33.0065 11.6667 34.1667 12.3366C34.9268 12.7755 35.558 13.4067 35.9968 14.1667C36.6667 15.327 36.6667 16.8847 36.6667 20.0001C36.6667 23.1155 36.6667 24.6732 35.9968 25.8334C35.558 26.5935 34.9268 27.2247 34.1667 27.6635C33.0065 28.3334 31.4488 28.3334 28.3334 28.3334H11.6667C8.55132 28.3334 6.99363 28.3334 5.83337 27.6635C5.07328 27.2247 4.44209 26.5935 4.00325 25.8334C3.33337 24.6732 3.33337 23.1155 3.33337 20.0001Z" stroke="white" stroke-width="2"/>
<path d="M31.6667 6.66659C31.6667 4.82564 30.1743 3.33325 28.3334 3.33325H11.6667C9.82576 3.33325 8.33337 4.82564 8.33337 6.66659" stroke="white" stroke-width="2"/>
<path d="M31.6667 33.3333C31.6667 35.1742 30.1743 36.6666 28.3334 36.6666H11.6667C9.82576 36.6666 8.33337 35.1742 8.33337 33.3333" stroke="white" stroke-width="2"/>
<rect x="9.16671" y="17.5001" width="8.33333" height="1.66667" rx="0.833333" stroke="white" stroke-width="1.66667"/>
</svg>
